<svg width="470" height="131" viewBox="0 0 470 131" fill="none" xmlns="http://www.w3.org/2000/svg">
<path d="M437.446 75.402C437.446 77.2793 437.744 79.2633 438.342 81.354C438.982 83.402 439.302 84.9807 439.302 86.09C439.302 87.1993 438.79 88.266 437.766 89.29C436.784 90.2713 435.568 90.762 434.118 90.762C432.667 90.762 431.451 90.186 430.47 89.034C429.531 87.882 429.062 86.474 429.062 84.81C429.062 83.146 429.254 81.3113 429.638 79.306C430.064 77.258 430.747 74.8047 431.686 71.946C432.667 69.0447 434.182 65.8447 436.23 62.346C438.32 58.8473 440.795 55.5407 443.654 52.426L445.638 50.25H433.798C431.067 50.25 429.083 50.634 427.846 51.402C426.608 52.17 425.776 53.5353 425.35 55.498L424.774 58.442H422.278L420.55 47.69C420.55 46.8367 420.742 46.218 421.126 45.834C421.51 45.4073 421.915 45.1727 422.342 45.13C422.811 45.0447 423.515 45.002 424.454 45.002H450.95V47.562C441.947 57.7593 437.446 67.0393 437.446 75.402Z" fill="white"/>
<path d="M382.55 67.426C382.55 60.8127 384.107 55.266 387.222 50.786C390.336 46.2633 394.411 44.002 399.446 44.002C404.48 44.002 408.555 46.2633 411.67 50.786C414.784 55.266 416.342 60.8127 416.342 67.426C416.342 74.0393 414.784 79.586 411.67 84.066C408.555 88.5033 404.48 90.722 399.446 90.722C394.411 90.722 390.336 88.482 387.222 84.002C384.107 79.522 382.55 73.9967 382.55 67.426ZM405.078 52.514C403.798 48.5887 401.92 46.626 399.446 46.626C396.971 46.626 395.072 48.5887 393.75 52.514C392.47 56.3967 391.83 61.3673 391.83 67.426C391.83 73.442 392.47 78.3913 393.75 82.274C395.072 86.1567 396.971 88.098 399.446 88.098C401.92 88.098 403.798 86.1567 405.078 82.274C406.4 78.3913 407.062 73.442 407.062 67.426C407.062 61.3673 406.4 56.3967 405.078 52.514Z" fill="white"/>
<path d="M371.707 41.002C372.987 41.002 373.627 42.218 373.627 44.65V66.858C373.627 68.01 373.904 68.9273 374.459 69.61C375.013 70.25 375.867 70.57 377.019 70.57C378.171 70.57 379.493 69.9513 380.987 68.714L382.139 70.25C378.725 73.3647 375.312 74.922 371.899 74.922C366.651 74.922 364.027 71.786 364.027 65.514V47.53C362.021 48.3407 359.589 48.8953 356.731 49.194C356.389 53.1193 355.259 57.0447 353.339 60.97L350.715 60.202C351.909 57.1727 352.549 53.5673 352.635 49.386C351.013 49.386 349.691 48.9167 348.667 47.978C347.685 47.0393 347.195 45.8873 347.195 44.522C347.195 43.114 347.664 41.9407 348.603 41.002C349.584 40.0207 350.757 39.53 352.123 39.53C353.531 39.53 354.704 40.0207 355.643 41.002C356.581 41.9833 357.051 43.242 357.051 44.778H358.267C361.637 44.778 365.221 43.8393 369.019 41.962C370.256 41.322 371.152 41.002 371.707 41.002Z" fill="white"/>
<path d="M325.903 59.178C328.677 58.922 330.81 57.8767 332.303 56.042C333.839 54.1647 334.607 52.2873 334.607 50.41C334.607 48.49 334.181 47.018 333.327 45.994C332.517 44.97 331.258 44.458 329.551 44.458C327.887 44.458 326.287 45.6527 324.751 48.042C323.215 50.4313 322.447 53.6313 322.447 57.642C322.447 61.6527 323.173 64.874 324.623 67.306C326.074 69.738 328.143 70.954 330.831 70.954C334.927 70.954 338.405 69.354 341.263 66.154L343.055 67.306C341.605 69.61 339.685 71.466 337.295 72.874C334.906 74.2393 332.218 74.922 329.231 74.922C324.154 74.922 320.101 73.258 317.071 69.93C314.042 66.5593 312.527 62.506 312.527 57.77C312.527 53.034 314.127 49.066 317.327 45.866C320.57 42.6233 325.05 41.002 330.767 41.002C334.522 41.002 337.466 41.8767 339.599 43.626C341.733 45.3753 342.799 47.594 342.799 50.282C342.799 52.97 341.605 55.466 339.215 57.77C336.869 60.0313 333.754 61.162 329.871 61.162C328.549 61.162 327.269 61.0127 326.031 60.714L325.903 59.178Z" fill="white"/>
<path d="M269.074 45.226C270.312 43.946 271.869 42.922 273.746 42.154C275.666 41.386 277.544 41.002 279.378 41.002C281.256 41.002 282.792 41.386 283.986 42.154C285.181 42.8793 285.778 43.7967 285.778 44.906V64.298C285.778 65.6633 286.205 66.7087 287.058 67.434C287.912 68.1167 288.978 68.458 290.258 68.458C292.989 68.458 295.314 67.2847 297.234 64.938C299.197 62.5913 300.178 59.5833 300.178 55.914C300.178 53.866 299.773 51.7113 298.962 49.45C298.194 49.962 297.213 50.218 296.018 50.218C294.824 50.218 293.736 49.7487 292.754 48.81C291.816 47.8287 291.346 46.6553 291.346 45.29C291.346 43.9247 291.816 42.7727 292.754 41.834C293.736 40.8527 294.952 40.362 296.402 40.362C297.853 40.362 299.09 40.9167 300.114 42.026C301.181 43.0927 301.949 44.522 302.418 46.314C303.186 49.4287 303.57 52.8847 303.57 56.682C303.57 60.4367 303.122 64.2127 302.226 68.01C301.373 71.8073 300.221 75.0713 298.77 77.802C297.362 80.5327 295.762 82.9007 293.97 84.906C290.301 88.9167 286.568 90.922 282.77 90.922C281.746 90.922 280.893 90.6873 280.21 90.218C279.57 89.7913 278.824 88.9807 277.97 87.786L274.642 83.178L276.306 81.45C278.354 81.7913 280.146 81.962 281.682 81.962C286.461 81.962 290.365 80.4473 293.394 77.418C296.424 74.3887 298.813 69.4607 300.562 62.634C297.917 69.9727 293.053 73.642 285.97 73.642C283.24 73.642 280.914 72.7247 278.994 70.89C277.117 69.0127 276.178 66.3673 276.178 62.954V44.074C273.832 44.6713 272.04 45.7167 270.802 47.21L269.074 45.226Z" fill="white"/>
<path d="M261.013 41.962V66.858C261.013 68.01 261.29 68.9273 261.845 69.61C262.399 70.25 263.253 70.57 264.405 70.57C265.557 70.57 266.879 69.9513 268.373 68.714L269.525 70.25C266.111 73.3647 262.698 74.922 259.285 74.922C255.231 74.922 252.735 73.0233 251.797 69.226C249.578 73.0233 246.314 74.922 242.005 74.922C237.098 74.922 233.365 73.3433 230.805 70.186C228.245 66.986 226.965 62.9327 226.965 58.026C226.965 53.0767 228.33 49.002 231.061 45.802C233.834 42.602 237.695 41.002 242.645 41.002C246.442 41.002 249.365 42.5167 251.413 45.546V41.962H261.013ZM238.677 48.234C237.482 50.6233 236.885 53.866 236.885 57.962C236.885 62.058 237.482 65.3007 238.677 67.69C239.871 70.0793 241.685 71.274 244.117 71.274C246.591 71.274 248.469 70.0793 249.749 67.69C251.071 65.258 251.733 62.0153 251.733 57.962C251.733 53.9087 251.071 50.6873 249.749 48.298C248.469 45.866 246.591 44.65 244.117 44.65C241.685 44.65 239.871 45.8447 238.677 48.234Z" fill="white"/>
<path d="M198.867 29.226C200.105 27.946 201.662 26.922 203.539 26.154C205.459 25.386 207.337 25.002 209.171 25.002C211.049 25.002 212.585 25.386 213.779 26.154C214.974 26.8793 215.571 27.7967 215.571 28.906V66.858C215.571 68.01 215.849 68.9273 216.403 69.61C216.958 70.25 217.811 70.57 218.963 70.57C220.115 70.57 221.438 69.9513 222.931 68.714L224.083 70.25C220.67 73.3647 217.257 74.922 213.843 74.922C208.595 74.922 205.971 71.786 205.971 65.514V28.074C203.625 28.6713 201.833 29.7167 200.595 31.21L198.867 29.226Z" fill="white"/>
<path d="M161.222 31.722V29.162H175.302C185.798 29.162 192.369 31.6793 195.014 36.714C196.081 38.6767 196.614 41.066 196.614 43.882C196.614 46.698 196.081 49.0873 195.014 51.05C193.99 53.0127 192.476 54.5273 190.47 55.594C186.716 57.5993 181.66 58.602 175.302 58.602H174.662V71.402H179.782V73.962H161.222V71.402H165.062V31.722H161.222ZM175.302 31.722H174.662V56.042H175.302C178.673 56.042 181.468 54.9753 183.686 52.842C185.905 50.7087 187.014 47.722 187.014 43.882C187.014 40.042 185.905 37.0553 183.686 34.922C181.468 32.7887 178.673 31.722 175.302 31.722Z" fill="white"/>
<path d="M148.686 90.762H121.55V88.202L136.59 72.97C140.984 68.5327 143.182 63.8393 143.182 58.89C143.182 55.8607 142.307 53.3433 140.558 51.338C138.851 49.3327 136.675 48.33 134.03 48.33C132.11 48.33 130.424 48.6287 128.974 49.226C129.955 49.5673 130.766 50.186 131.406 51.082C132.046 51.9353 132.366 52.9807 132.366 54.218C132.366 55.4553 131.854 56.586 130.83 57.61C129.806 58.634 128.59 59.146 127.182 59.146C125.774 59.146 124.579 58.6553 123.598 57.674C122.616 56.65 122.126 55.434 122.126 54.026C122.126 51.2953 123.555 49.1193 126.414 47.498C129.315 45.834 132.92 45.002 137.23 45.002C141.539 45.002 145.08 46.154 147.854 48.458C150.627 50.7193 152.014 53.514 152.014 56.842C152.014 59.402 151.203 61.7913 149.582 64.01C147.96 66.2287 144.952 69.4287 140.558 73.61L128.846 84.874H139.47C142.2 84.874 144.184 84.49 145.422 83.722C146.659 82.954 147.491 81.5887 147.918 79.626L148.366 77.322H150.862L152.59 88.074C152.59 88.9273 152.398 89.5673 152.014 89.994C151.63 90.378 151.203 90.6127 150.734 90.698C150.307 90.7407 149.624 90.762 148.686 90.762Z" fill="white"/>
<path d="M104.267 31.722H99.7872V53.61H113.227V56.49H99.7872V71.402H106.827V73.962H86.3472V71.402H90.1872V31.722H86.3472V29.162H113.803C114.742 29.162 115.425 29.2047 115.851 29.29C116.321 29.3327 116.747 29.5673 117.131 29.994C117.515 30.378 117.707 30.9967 117.707 31.85L115.979 42.602H113.483L112.203 36.266C111.819 34.346 111.094 33.1087 110.027 32.554C109.003 31.9993 107.083 31.722 104.267 31.722Z" fill="white"/>
<path d="M49.1577 66.218C45.3177 66.218 41.6271 65.45 38.0857 63.914C34.5444 62.4207 31.4937 60.394 28.9337 57.834C26.3737 55.274 24.3257 52.2233 22.7897 48.682C21.2964 45.1407 20.5497 41.45 20.5497 37.61C20.5497 33.77 21.2964 30.0793 22.7897 26.538C24.3257 22.9967 26.3737 19.946 28.9337 17.386C31.4937 14.826 34.5444 12.7993 38.0857 11.306C41.6271 9.77 45.3177 9.002 49.1577 9.002C52.9977 9.002 56.6884 9.77 60.2297 11.306C63.7711 12.7993 66.8217 14.826 69.3817 17.386C71.9417 19.946 73.9684 22.9967 75.4617 26.538C76.9977 30.0793 77.7657 33.4927 77.7657 36.778C77.7657 40.0207 77.3391 42.7087 76.4857 44.842C75.6751 46.9753 74.5871 48.682 73.2217 49.962C70.4484 52.4793 67.3551 53.738 63.9417 53.738C61.7657 53.738 59.8244 53.2047 58.1177 52.138C56.4111 51.0287 55.3017 49.514 54.7897 47.594H54.1497C51.9311 50.6233 49.0084 52.138 45.3817 52.138C41.7551 52.138 38.8964 50.7513 36.8057 47.978C34.7577 45.162 33.7337 41.6847 33.7337 37.546C33.7337 33.4073 34.9071 29.9727 37.2537 27.242C39.6431 24.4687 42.9497 23.082 47.1737 23.082C50.2031 23.082 52.5924 24.0633 54.3417 26.026L55.8777 23.786H62.7897V44.394C62.7897 46.1433 63.1311 47.4873 63.8137 48.426C64.5391 49.3647 65.5417 49.834 66.8217 49.834C68.6991 49.834 70.4484 48.7673 72.0697 46.634C73.6911 44.458 74.5017 41.45 74.5017 37.61C74.5017 30.6553 72.0057 24.7033 67.0137 19.754C62.0644 14.762 56.1124 12.266 49.1577 12.266C42.2031 12.266 36.2297 14.762 31.2377 19.754C26.2884 24.7033 23.8137 30.6553 23.8137 37.61C23.8137 44.5647 26.2884 50.5167 31.2377 55.466C36.2297 60.458 42.2031 62.954 49.1577 62.954C53.7657 62.954 58.0537 61.7807 62.0217 59.434L63.4937 62.25C59.0137 64.8953 54.2351 66.218 49.1577 66.218ZM44.2297 29.866C43.3337 31.7433 42.8857 34.3033 42.8857 37.546C42.8857 40.7887 43.3337 43.37 44.2297 45.29C45.1684 47.21 46.5764 48.17 48.4537 48.17C49.5204 48.17 50.5231 47.85 51.4617 47.21C52.4431 46.57 53.1684 45.7167 53.6377 44.65V29.994C53.1684 29.0553 52.4431 28.33 51.4617 27.818C50.4804 27.2633 49.4777 26.986 48.4537 26.986C46.5764 26.986 45.1684 27.946 44.2297 29.866Z" fill="white"/>
<path fill-rule="evenodd" clip-rule="evenodd" d="M81.5497 90.627C81.5497 73.4395 76.2997 70.002 50.0497 70.002C23.7997 70.002 18.5497 73.4395 18.5497 90.627C18.5497 107.815 23.7997 111.252 50.0497 111.252C76.2997 111.252 81.5497 107.815 81.5497 90.627ZM43.5581 96.0015L60.5681 90.2265L43.545 84.412L43.5581 95.9998V96.0015Z" fill="white"/>
<path d="M437.446 75.402C437.446 77.2793 437.744 79.2633 438.342 81.354C438.982 83.402 439.302 84.9807 439.302 86.09C439.302 87.1993 438.79 88.266 437.766 89.29C436.784 90.2713 435.568 90.762 434.118 90.762C432.667 90.762 431.451 90.186 430.47 89.034C429.531 87.882 429.062 86.474 429.062 84.81C429.062 83.146 429.254 81.3113 429.638 79.306C430.064 77.258 430.747 74.8047 431.686 71.946C432.667 69.0447 434.182 65.8447 436.23 62.346C438.32 58.8473 440.795 55.5407 443.654 52.426L445.638 50.25H433.798C431.067 50.25 429.083 50.634 427.846 51.402C426.608 52.17 425.776 53.5353 425.35 55.498L424.774 58.442H422.278L420.55 47.69C420.55 46.8367 420.742 46.218 421.126 45.834C421.51 45.4073 421.915 45.1727 422.342 45.13C422.811 45.0447 423.515 45.002 424.454 45.002H450.95V47.562C441.947 57.7593 437.446 67.0393 437.446 75.402Z" stroke="black"/>
<path d="M382.55 67.426C382.55 60.8127 384.107 55.266 387.222 50.786C390.336 46.2633 394.411 44.002 399.446 44.002C404.48 44.002 408.555 46.2633 411.67 50.786C414.784 55.266 416.342 60.8127 416.342 67.426C416.342 74.0393 414.784 79.586 411.67 84.066C408.555 88.5033 404.48 90.722 399.446 90.722C394.411 90.722 390.336 88.482 387.222 84.002C384.107 79.522 382.55 73.9967 382.55 67.426ZM405.078 52.514C403.798 48.5887 401.92 46.626 399.446 46.626C396.971 46.626 395.072 48.5887 393.75 52.514C392.47 56.3967 391.83 61.3673 391.83 67.426C391.83 73.442 392.47 78.3913 393.75 82.274C395.072 86.1567 396.971 88.098 399.446 88.098C401.92 88.098 403.798 86.1567 405.078 82.274C406.4 78.3913 407.062 73.442 407.062 67.426C407.062 61.3673 406.4 56.3967 405.078 52.514Z" stroke="black"/>
<path d="M371.707 41.002C372.987 41.002 373.627 42.218 373.627 44.65V66.858C373.627 68.01 373.904 68.9273 374.459 69.61C375.013 70.25 375.867 70.57 377.019 70.57C378.171 70.57 379.493 69.9513 380.987 68.714L382.139 70.25C378.725 73.3647 375.312 74.922 371.899 74.922C366.651 74.922 364.027 71.786 364.027 65.514V47.53C362.021 48.3407 359.589 48.8953 356.731 49.194C356.389 53.1193 355.259 57.0447 353.339 60.97L350.715 60.202C351.909 57.1727 352.549 53.5673 352.635 49.386C351.013 49.386 349.691 48.9167 348.667 47.978C347.685 47.0393 347.195 45.8873 347.195 44.522C347.195 43.114 347.664 41.9407 348.603 41.002C349.584 40.0207 350.757 39.53 352.123 39.53C353.531 39.53 354.704 40.0207 355.643 41.002C356.581 41.9833 357.051 43.242 357.051 44.778H358.267C361.637 44.778 365.221 43.8393 369.019 41.962C370.256 41.322 371.152 41.002 371.707 41.002Z" stroke="black"/>
<path d="M325.903 59.178C328.677 58.922 330.81 57.8767 332.303 56.042C333.839 54.1647 334.607 52.2873 334.607 50.41C334.607 48.49 334.181 47.018 333.327 45.994C332.517 44.97 331.258 44.458 329.551 44.458C327.887 44.458 326.287 45.6527 324.751 48.042C323.215 50.4313 322.447 53.6313 322.447 57.642C322.447 61.6527 323.173 64.874 324.623 67.306C326.074 69.738 328.143 70.954 330.831 70.954C334.927 70.954 338.405 69.354 341.263 66.154L343.055 67.306C341.605 69.61 339.685 71.466 337.295 72.874C334.906 74.2393 332.218 74.922 329.231 74.922C324.154 74.922 320.101 73.258 317.071 69.93C314.042 66.5593 312.527 62.506 312.527 57.77C312.527 53.034 314.127 49.066 317.327 45.866C320.57 42.6233 325.05 41.002 330.767 41.002C334.522 41.002 337.466 41.8767 339.599 43.626C341.733 45.3753 342.799 47.594 342.799 50.282C342.799 52.97 341.605 55.466 339.215 57.77C336.869 60.0313 333.754 61.162 329.871 61.162C328.549 61.162 327.269 61.0127 326.031 60.714L325.903 59.178Z" stroke="black"/>
<path d="M269.074 45.226C270.312 43.946 271.869 42.922 273.746 42.154C275.666 41.386 277.544 41.002 279.378 41.002C281.256 41.002 282.792 41.386 283.986 42.154C285.181 42.8793 285.778 43.7967 285.778 44.906V64.298C285.778 65.6633 286.205 66.7087 287.058 67.434C287.912 68.1167 288.978 68.458 290.258 68.458C292.989 68.458 295.314 67.2847 297.234 64.938C299.197 62.5913 300.178 59.5833 300.178 55.914C300.178 53.866 299.773 51.7113 298.962 49.45C298.194 49.962 297.213 50.218 296.018 50.218C294.824 50.218 293.736 49.7487 292.754 48.81C291.816 47.8287 291.346 46.6553 291.346 45.29C291.346 43.9247 291.816 42.7727 292.754 41.834C293.736 40.8527 294.952 40.362 296.402 40.362C297.853 40.362 299.09 40.9167 300.114 42.026C301.181 43.0927 301.949 44.522 302.418 46.314C303.186 49.4287 303.57 52.8847 303.57 56.682C303.57 60.4367 303.122 64.2127 302.226 68.01C301.373 71.8073 300.221 75.0713 298.77 77.802C297.362 80.5327 295.762 82.9007 293.97 84.906C290.301 88.9167 286.568 90.922 282.77 90.922C281.746 90.922 280.893 90.6873 280.21 90.218C279.57 89.7913 278.824 88.9807 277.97 87.786L274.642 83.178L276.306 81.45C278.354 81.7913 280.146 81.962 281.682 81.962C286.461 81.962 290.365 80.4473 293.394 77.418C296.424 74.3887 298.813 69.4607 300.562 62.634C297.917 69.9727 293.053 73.642 285.97 73.642C283.24 73.642 280.914 72.7247 278.994 70.89C277.117 69.0127 276.178 66.3673 276.178 62.954V44.074C273.832 44.6713 272.04 45.7167 270.802 47.21L269.074 45.226Z" stroke="black"/>
<path d="M261.013 41.962V66.858C261.013 68.01 261.29 68.9273 261.845 69.61C262.399 70.25 263.253 70.57 264.405 70.57C265.557 70.57 266.879 69.9513 268.373 68.714L269.525 70.25C266.111 73.3647 262.698 74.922 259.285 74.922C255.231 74.922 252.735 73.0233 251.797 69.226C249.578 73.0233 246.314 74.922 242.005 74.922C237.098 74.922 233.365 73.3433 230.805 70.186C228.245 66.986 226.965 62.9327 226.965 58.026C226.965 53.0767 228.33 49.002 231.061 45.802C233.834 42.602 237.695 41.002 242.645 41.002C246.442 41.002 249.365 42.5167 251.413 45.546V41.962H261.013ZM238.677 48.234C237.482 50.6233 236.885 53.866 236.885 57.962C236.885 62.058 237.482 65.3007 238.677 67.69C239.871 70.0793 241.685 71.274 244.117 71.274C246.591 71.274 248.469 70.0793 249.749 67.69C251.071 65.258 251.733 62.0153 251.733 57.962C251.733 53.9087 251.071 50.6873 249.749 48.298C248.469 45.866 246.591 44.65 244.117 44.65C241.685 44.65 239.871 45.8447 238.677 48.234Z" stroke="black"/>
<path d="M198.867 29.226C200.105 27.946 201.662 26.922 203.539 26.154C205.459 25.386 207.337 25.002 209.171 25.002C211.049 25.002 212.585 25.386 213.779 26.154C214.974 26.8793 215.571 27.7967 215.571 28.906V66.858C215.571 68.01 215.849 68.9273 216.403 69.61C216.958 70.25 217.811 70.57 218.963 70.57C220.115 70.57 221.438 69.9513 222.931 68.714L224.083 70.25C220.67 73.3647 217.257 74.922 213.843 74.922C208.595 74.922 205.971 71.786 205.971 65.514V28.074C203.625 28.6713 201.833 29.7167 200.595 31.21L198.867 29.226Z" stroke="black"/>
<path d="M161.222 31.722V29.162H175.302C185.798 29.162 192.369 31.6793 195.014 36.714C196.081 38.6767 196.614 41.066 196.614 43.882C196.614 46.698 196.081 49.0873 195.014 51.05C193.99 53.0127 192.476 54.5273 190.47 55.594C186.716 57.5993 181.66 58.602 175.302 58.602H174.662V71.402H179.782V73.962H161.222V71.402H165.062V31.722H161.222ZM175.302 31.722H174.662V56.042H175.302C178.673 56.042 181.468 54.9753 183.686 52.842C185.905 50.7087 187.014 47.722 187.014 43.882C187.014 40.042 185.905 37.0553 183.686 34.922C181.468 32.7887 178.673 31.722 175.302 31.722Z" stroke="black"/>
<path d="M148.686 90.762H121.55V88.202L136.59 72.97C140.984 68.5327 143.182 63.8393 143.182 58.89C143.182 55.8607 142.307 53.3433 140.558 51.338C138.851 49.3327 136.675 48.33 134.03 48.33C132.11 48.33 130.424 48.6287 128.974 49.226C129.955 49.5673 130.766 50.186 131.406 51.082C132.046 51.9353 132.366 52.9807 132.366 54.218C132.366 55.4553 131.854 56.586 130.83 57.61C129.806 58.634 128.59 59.146 127.182 59.146C125.774 59.146 124.579 58.6553 123.598 57.674C122.616 56.65 122.126 55.434 122.126 54.026C122.126 51.2953 123.555 49.1193 126.414 47.498C129.315 45.834 132.92 45.002 137.23 45.002C141.539 45.002 145.08 46.154 147.854 48.458C150.627 50.7193 152.014 53.514 152.014 56.842C152.014 59.402 151.203 61.7913 149.582 64.01C147.96 66.2287 144.952 69.4287 140.558 73.61L128.846 84.874H139.47C142.2 84.874 144.184 84.49 145.422 83.722C146.659 82.954 147.491 81.5887 147.918 79.626L148.366 77.322H150.862L152.59 88.074C152.59 88.9273 152.398 89.5673 152.014 89.994C151.63 90.378 151.203 90.6127 150.734 90.698C150.307 90.7407 149.624 90.762 148.686 90.762Z" stroke="black"/>
<path d="M104.267 31.722H99.7872V53.61H113.227V56.49H99.7872V71.402H106.827V73.962H86.3472V71.402H90.1872V31.722H86.3472V29.162H113.803C114.742 29.162 115.425 29.2047 115.851 29.29C116.321 29.3327 116.747 29.5673 117.131 29.994C117.515 30.378 117.707 30.9967 117.707 31.85L115.979 42.602H113.483L112.203 36.266C111.819 34.346 111.094 33.1087 110.027 32.554C109.003 31.9993 107.083 31.722 104.267 31.722Z" stroke="black"/>
<path d="M49.1577 66.218C45.3177 66.218 41.6271 65.45 38.0857 63.914C34.5444 62.4207 31.4937 60.394 28.9337 57.834C26.3737 55.274 24.3257 52.2233 22.7897 48.682C21.2964 45.1407 20.5497 41.45 20.5497 37.61C20.5497 33.77 21.2964 30.0793 22.7897 26.538C24.3257 22.9967 26.3737 19.946 28.9337 17.386C31.4937 14.826 34.5444 12.7993 38.0857 11.306C41.6271 9.77 45.3177 9.002 49.1577 9.002C52.9977 9.002 56.6884 9.77 60.2297 11.306C63.7711 12.7993 66.8217 14.826 69.3817 17.386C71.9417 19.946 73.9684 22.9967 75.4617 26.538C76.9977 30.0793 77.7657 33.4927 77.7657 36.778C77.7657 40.0207 77.3391 42.7087 76.4857 44.842C75.6751 46.9753 74.5871 48.682 73.2217 49.962C70.4484 52.4793 67.3551 53.738 63.9417 53.738C61.7657 53.738 59.8244 53.2047 58.1177 52.138C56.4111 51.0287 55.3017 49.514 54.7897 47.594H54.1497C51.9311 50.6233 49.0084 52.138 45.3817 52.138C41.7551 52.138 38.8964 50.7513 36.8057 47.978C34.7577 45.162 33.7337 41.6847 33.7337 37.546C33.7337 33.4073 34.9071 29.9727 37.2537 27.242C39.6431 24.4687 42.9497 23.082 47.1737 23.082C50.2031 23.082 52.5924 24.0633 54.3417 26.026L55.8777 23.786H62.7897V44.394C62.7897 46.1433 63.1311 47.4873 63.8137 48.426C64.5391 49.3647 65.5417 49.834 66.8217 49.834C68.6991 49.834 70.4484 48.7673 72.0697 46.634C73.6911 44.458 74.5017 41.45 74.5017 37.61C74.5017 30.6553 72.0057 24.7033 67.0137 19.754C62.0644 14.762 56.1124 12.266 49.1577 12.266C42.2031 12.266 36.2297 14.762 31.2377 19.754C26.2884 24.7033 23.8137 30.6553 23.8137 37.61C23.8137 44.5647 26.2884 50.5167 31.2377 55.466C36.2297 60.458 42.2031 62.954 49.1577 62.954C53.7657 62.954 58.0537 61.7807 62.0217 59.434L63.4937 62.25C59.0137 64.8953 54.2351 66.218 49.1577 66.218ZM44.2297 29.866C43.3337 31.7433 42.8857 34.3033 42.8857 37.546C42.8857 40.7887 43.3337 43.37 44.2297 45.29C45.1684 47.21 46.5764 48.17 48.4537 48.17C49.5204 48.17 50.5231 47.85 51.4617 47.21C52.4431 46.57 53.1684 45.7167 53.6377 44.65V29.994C53.1684 29.0553 52.4431 28.33 51.4617 27.818C50.4804 27.2633 49.4777 26.986 48.4537 26.986C46.5764 26.986 45.1684 27.946 44.2297 29.866Z" stroke="black"/>
<path fill-rule="evenodd" clip-rule="evenodd" d="M81.5497 90.627C81.5497 73.4395 76.2997 70.002 50.0497 70.002C23.7997 70.002 18.5497 73.4395 18.5497 90.627C18.5497 107.815 23.7997 111.252 50.0497 111.252C76.2997 111.252 81.5497 107.815 81.5497 90.627ZM43.5581 96.0015L60.5681 90.2265L43.545 84.412L43.5581 95.9998V96.0015Z" stroke="black"/>
<path d="M469.05 11.002C469.05 8.16867 377.75 2.102 12.5497 0.502003L0.549736 130.002L469.05 118.502V11.002Z" stroke="black"/>
</svg>
