999
"DXF R12 Output" (www.mydxf.blogspot.com)
 0 
SECTION
 2 
HEADER
 9 
$ACADVER
 1 
AC1009
 9 
$EXTMIN
 10 
 0 
 20 
 0 
 9 
$EXTMAX
 10 
 8.5 
 20 
 11 
 0 
ENDSEC
 0 
SECTION
 2 
ENTITIES
0
POLYLINE
8
Layer 1
62
7
70
1
10
0.000000
20
0.000000
66
1
0
VERTEX
8
Layer 1
10
115.740775
20
14.710313
70
0
0
VERTEX
8
Layer 1
10
115.977841
20
13.135515
70
0
0
VERTEX
8
Layer 1
10
116.231841
20
11.882450
70
0
0
VERTEX
8
Layer 1
10
116.130241
20
11.450653
70
0
0
VERTEX
8
Layer 1
10
115.825442
20
11.035784
70
0
0
VERTEX
8
Layer 1
10
115.389277
20
10.743688
70
0
0
VERTEX
8
Layer 1
10
114.860243
20
10.646318
70
0
0
VERTEX
8
Layer 1
10
114.331011
20
10.760618
70
0
0
VERTEX
8
Layer 1
10
113.895044
20
11.103517
70
0
0
VERTEX
8
Layer 1
10
113.615611
20
11.611517
70
0
0
VERTEX
8
Layer 1
10
113.522511
20
12.221116
70
0
0
VERTEX
8
Layer 1
10
113.674911
20
13.677381
70
0
0
VERTEX
8
Layer 1
10
114.216777
20
15.624711
70
0
0
VERTEX
8
Layer 1
10
115.419042
20
18.164708
70
0
0
VERTEX
8
Layer 1
10
116.324875
20
19.515140
70
0
0
VERTEX
8
Layer 1
10
117.383306
20
20.789372
70
0
0
VERTEX
8
Layer 1
10
117.908239
20
21.365104
70
0
0
VERTEX
8
Layer 1
10
114.775576
20
21.365104
70
0
0
VERTEX
8
Layer 1
10
113.839945
20
21.288904
70
0
0
VERTEX
8
Layer 1
10
113.200778
20
21.060305
70
0
0
VERTEX
8
Layer 1
10
112.790013
20
20.636975
70
0
0
VERTEX
8
Layer 1
10
112.540379
20
19.976573
70
0
0
VERTEX
8
Layer 1
10
112.387979
20
19.197640
70
0
0
VERTEX
8
Layer 1
10
111.727580
20
19.197640
70
0
0
VERTEX
8
Layer 1
10
111.270381
20
22.042437
70
0
0
VERTEX
8
Layer 1
10
111.422780
20
22.533503
70
0
0
VERTEX
8
Layer 1
10
111.744513
20
22.719769
70
0
0
VERTEX
8
Layer 1
10
112.303313
20
22.753636
70
0
0
VERTEX
8
Layer 1
10
119.313704
20
22.753636
70
0
0
VERTEX
8
Layer 1
10
119.313704
20
22.076303
70
0
0
VERTEX
8
Layer 1
10
117.750510
20
20.098286
70
0
0
VERTEX
8
Layer 1
10
116.633974
20
18.211282
70
0
0
VERTEX
8
Layer 1
10
115.964071
20
16.415290
70
0
0
VERTEX
8
Layer 1
10
115.740775
20
14.710313
70
0
0
VERTEX
8
Layer 1
10
115.740775
20
14.710313
70
0
0
SEQEND
8
Layer 1
0
POLYLINE
8
Layer 1
62
7
70
1
10
0.000000
20
0.000000
66
1
0
VERTEX
8
Layer 1
10
101.216227
20
16.820627
70
0
0
VERTEX
8
Layer 1
10
101.293472
20
18.080038
70
0
0
VERTEX
8
Layer 1
10
101.525227
20
19.233620
70
0
0
VERTEX
8
Layer 1
10
101.911514
20
20.281371
70
0
0
VERTEX
8
Layer 1
10
102.452358
20
21.223288
70
0
0
VERTEX
8
Layer 1
10
103.117962
20
22.008574
70
0
0
VERTEX
8
Layer 1
10
103.878891
20
22.569489
70
0
0
VERTEX
8
Layer 1
10
104.735119
20
22.906037
70
0
0
VERTEX
8
Layer 1
10
105.686621
20
23.018219
70
0
0
VERTEX
8
Layer 1
10
106.637975
20
22.906037
70
0
0
VERTEX
8
Layer 1
10
107.494153
20
22.569489
70
0
0
VERTEX
8
Layer 1
10
108.255131
20
22.008574
70
0
0
VERTEX
8
Layer 1
10
108.920884
20
21.223288
70
0
0
VERTEX
8
Layer 1
10
109.461617
20
20.281371
70
0
0
VERTEX
8
Layer 1
10
109.847916
20
19.233620
70
0
0
VERTEX
8
Layer 1
10
110.079732
20
18.080038
70
0
0
VERTEX
8
Layer 1
10
110.157015
20
16.820627
70
0
0
VERTEX
8
Layer 1
10
110.079732
20
15.561215
70
0
0
VERTEX
8
Layer 1
10
109.847916
20
14.407633
70
0
0
VERTEX
8
Layer 1
10
109.461617
20
13.359882
70
0
0
VERTEX
8
Layer 1
10
108.920884
20
12.417966
70
0
0
VERTEX
8
Layer 1
10
108.255131
20
11.647504
70
0
0
VERTEX
8
Layer 1
10
107.494153
20
11.097170
70
0
0
VERTEX
8
Layer 1
10
106.637975
20
10.766969
70
0
0
VERTEX
8
Layer 1
10
105.686621
20
10.656901
70
0
0
VERTEX
8
Layer 1
10
104.735119
20
10.768026
70
0
0
VERTEX
8
Layer 1
10
103.878891
20
11.101401
70
0
0
VERTEX
8
Layer 1
10
103.117962
20
11.657025
70
0
0
VERTEX
8
Layer 1
10
102.452358
20
12.434899
70
0
0
VERTEX
8
Layer 1
10
101.911514
20
13.375755
70
0
0
VERTEX
8
Layer 1
10
101.525227
20
14.420326
70
0
0
VERTEX
8
Layer 1
10
101.293472
20
15.568616
70
0
0
VERTEX
8
Layer 1
10
101.216227
20
16.820627
70
0
0
VERTEX
8
Layer 1
10
101.216227
20
16.820627
70
0
0
SEQEND
8
Layer 1
0
POLYLINE
8
Layer 1
62
7
70
1
10
0.000000
20
0.000000
66
1
0
VERTEX
8
Layer 1
10
107.176752
20
20.766088
70
0
0
VERTEX
8
Layer 1
10
106.550154
20
21.934484
70
0
0
VERTEX
8
Layer 1
10
106.147979
20
22.226585
70
0
0
VERTEX
8
Layer 1
10
105.686621
20
22.323953
70
0
0
VERTEX
8
Layer 1
10
105.224068
20
22.226585
70
0
0
VERTEX
8
Layer 1
10
104.818690
20
21.934484
70
0
0
VERTEX
8
Layer 1
10
104.179556
20
20.766088
70
0
0
VERTEX
8
Layer 1
10
103.798557
20
19.009257
70
0
0
VERTEX
8
Layer 1
10
103.671557
20
16.820627
70
0
0
VERTEX
8
Layer 1
10
103.798557
20
14.644699
70
0
0
VERTEX
8
Layer 1
10
104.179556
20
12.892098
70
0
0
VERTEX
8
Layer 1
10
104.818690
20
11.736396
70
0
0
VERTEX
8
Layer 1
10
105.224068
20
11.447474
70
0
0
VERTEX
8
Layer 1
10
105.686621
20
11.351167
70
0
0
VERTEX
8
Layer 1
10
106.147979
20
11.447474
70
0
0
VERTEX
8
Layer 1
10
106.550154
20
11.736396
70
0
0
VERTEX
8
Layer 1
10
107.176752
20
12.892098
70
0
0
VERTEX
8
Layer 1
10
107.570386
20
14.644699
70
0
0
VERTEX
8
Layer 1
10
107.701685
20
16.820627
70
0
0
VERTEX
8
Layer 1
10
107.570386
20
19.009257
70
0
0
VERTEX
8
Layer 1
10
107.176752
20
20.766088
70
0
0
VERTEX
8
Layer 1
10
107.176752
20
20.766088
70
0
0
SEQEND
8
Layer 1
0
POLYLINE
8
Layer 1
62
7
70
1
10
0.000000
20
0.000000
66
1
0
VERTEX
8
Layer 1
10
98.347353
20
23.811968
70
0
0
VERTEX
8
Layer 1
10
98.728353
20
23.570668
70
0
0
VERTEX
8
Layer 1
10
98.855353
20
22.846769
70
0
0
VERTEX
8
Layer 1
10
98.855353
20
16.970910
70
0
0
VERTEX
8
Layer 1
10
99.075486
20
16.242777
70
0
0
VERTEX
8
Layer 1
10
99.354819
20
16.052278
70
0
0
VERTEX
8
Layer 1
10
99.752818
20
15.988778
70
0
0
VERTEX
8
Layer 1
10
100.243818
20
16.111548
70
0
0
VERTEX
8
Layer 1
10
100.802683
20
16.479844
70
0
0
VERTEX
8
Layer 1
10
101.107483
20
16.073444
70
0
0
VERTEX
8
Layer 1
10
99.752719
20
15.146342
70
0
0
VERTEX
8
Layer 1
10
99.075424
20
14.914569
70
0
0
VERTEX
8
Layer 1
10
98.398153
20
14.837312
70
0
0
VERTEX
8
Layer 1
10
97.486929
20
14.992887
70
0
0
VERTEX
8
Layer 1
10
96.836055
20
15.459612
70
0
0
VERTEX
8
Layer 1
10
96.445531
20
16.237486
70
0
0
VERTEX
8
Layer 1
10
96.315356
20
17.326509
70
0
0
VERTEX
8
Layer 1
10
96.315356
20
22.084770
70
0
0
VERTEX
8
Layer 1
10
94.384958
20
21.644504
70
0
0
VERTEX
8
Layer 1
10
94.092792
20
20.086639
70
0
0
VERTEX
8
Layer 1
10
93.487493
20
18.528774
70
0
0
VERTEX
8
Layer 1
10
92.793227
20
18.731974
70
0
0
VERTEX
8
Layer 1
10
93.157161
20
20.048539
70
0
0
VERTEX
8
Layer 1
10
93.301226
20
21.593704
70
0
0
VERTEX
8
Layer 1
10
92.716961
20
21.686834
70
0
0
VERTEX
8
Layer 1
10
92.251361
20
21.966237
70
0
0
VERTEX
8
Layer 1
10
91.959195
20
22.381110
70
0
0
VERTEX
8
Layer 1
10
91.861895
20
22.880636
70
0
0
VERTEX
8
Layer 1
10
91.954995
20
23.392865
70
0
0
VERTEX
8
Layer 1
10
92.234428
20
23.811968
70
0
0
VERTEX
8
Layer 1
10
92.661894
20
24.104064
70
0
0
VERTEX
8
Layer 1
10
93.165760
20
24.201434
70
0
0
VERTEX
8
Layer 1
10
93.677959
20
24.104064
70
0
0
VERTEX
8
Layer 1
10
94.097092
20
23.811968
70
0
0
VERTEX
8
Layer 1
10
94.376425
20
23.367472
70
0
0
VERTEX
8
Layer 1
10
94.469625
20
22.812902
70
0
0
VERTEX
8
Layer 1
10
94.791358
20
22.812902
70
0
0
VERTEX
8
Layer 1
10
96.171290
20
22.999172
70
0
0
VERTEX
8
Layer 1
10
97.636154
20
23.557968
70
0
0
VERTEX
8
Layer 1
10
98.347353
20
23.811968
70
0
0
VERTEX
8
Layer 1
10
98.347353
20
23.811968
70
0
0
SEQEND
8
Layer 1
0
POLYLINE
8
Layer 1
62
7
70
1
10
0.000000
20
0.000000
66
1
0
VERTEX
8
Layer 1
10
86.228393
20
19.002907
70
0
0
VERTEX
8
Layer 1
10
87.202158
20
19.261137
70
0
0
VERTEX
8
Layer 1
10
87.921725
20
19.832640
70
0
0
VERTEX
8
Layer 1
10
88.378924
20
20.577705
70
0
0
VERTEX
8
Layer 1
10
88.531324
20
21.322771
70
0
0
VERTEX
8
Layer 1
10
88.446723
20
21.995870
70
0
0
VERTEX
8
Layer 1
10
88.192658
20
22.491169
70
0
0
VERTEX
8
Layer 1
10
87.782124
20
22.795969
70
0
0
VERTEX
8
Layer 1
10
87.193592
20
22.897569
70
0
0
VERTEX
8
Layer 1
10
86.545893
20
22.660499
70
0
0
VERTEX
8
Layer 1
10
85.923594
20
21.949304
70
0
0
VERTEX
8
Layer 1
10
85.466394
20
20.840178
70
0
0
VERTEX
8
Layer 1
10
85.313995
20
19.409307
70
0
0
VERTEX
8
Layer 1
10
85.457994
20
17.974205
70
0
0
VERTEX
8
Layer 1
10
85.889727
20
16.852377
70
0
0
VERTEX
8
Layer 1
10
86.588259
20
16.128478
70
0
0
VERTEX
8
Layer 1
10
87.532258
20
15.887178
70
0
0
VERTEX
8
Layer 1
10
88.314391
20
15.966553
70
0
0
VERTEX
8
Layer 1
10
89.035156
20
16.204677
70
0
0
VERTEX
8
Layer 1
10
89.694505
20
16.601552
70
0
0
VERTEX
8
Layer 1
10
90.292388
20
17.157176
70
0
0
VERTEX
8
Layer 1
10
90.766521
20
16.852377
70
0
0
VERTEX
8
Layer 1
10
90.097788
20
16.026878
70
0
0
VERTEX
8
Layer 1
10
89.242523
20
15.379178
70
0
0
VERTEX
8
Layer 1
10
88.235057
20
14.972782
70
0
0
VERTEX
8
Layer 1
10
87.108926
20
14.837312
70
0
0
VERTEX
8
Layer 1
10
86.152256
20
14.919862
70
0
0
VERTEX
8
Layer 1
10
85.297161
20
15.167512
70
0
0
VERTEX
8
Layer 1
10
84.543616
20
15.580262
70
0
0
VERTEX
8
Layer 1
10
83.891596
20
16.158111
70
0
0
VERTEX
8
Layer 1
10
83.365643
20
16.860847
70
0
0
VERTEX
8
Layer 1
10
82.989931
20
17.631312
70
0
0
VERTEX
8
Layer 1
10
82.764485
20
18.469509
70
0
0
VERTEX
8
Layer 1
10
82.689331
20
19.375440
70
0
0
VERTEX
8
Layer 1
10
82.768706
20
20.277139
70
0
0
VERTEX
8
Layer 1
10
83.006831
20
21.102638
70
0
0
VERTEX
8
Layer 1
10
83.403705
20
21.851937
70
0
0
VERTEX
8
Layer 1
10
83.959330
20
22.525036
70
0
0
VERTEX
8
Layer 1
10
84.664228
20
23.088072
70
0
0
VERTEX
8
Layer 1
10
85.491861
20
23.490238
70
0
0
VERTEX
8
Layer 1
10
86.442226
20
23.731536
70
0
0
VERTEX
8
Layer 1
10
87.515325
20
23.811968
70
0
0
VERTEX
8
Layer 1
10
88.844656
20
23.638398
70
0
0
VERTEX
8
Layer 1
10
89.852122
20
23.117702
70
0
0
VERTEX
8
Layer 1
10
90.487188
20
22.330306
70
0
0
VERTEX
8
Layer 1
10
90.698788
20
21.356638
70
0
0
VERTEX
8
Layer 1
10
90.461788
20
20.327939
70
0
0
VERTEX
8
Layer 1
10
89.750522
20
19.375440
70
0
0
VERTEX
8
Layer 1
10
88.666890
20
18.702344
70
0
0
VERTEX
8
Layer 1
10
87.278259
20
18.477975
70
0
0
VERTEX
8
Layer 1
10
86.262260
20
18.596508
70
0
0
VERTEX
8
Layer 1
10
86.228393
20
19.002907
70
0
0
VERTEX
8
Layer 1
10
86.228393
20
19.002907
70
0
0
SEQEND
8
Layer 1
0
POLYLINE
8
Layer 1
62
7
70
1
10
0.000000
20
0.000000
66
1
0
VERTEX
8
Layer 1
10
71.192406
20
22.694369
70
0
0
VERTEX
8
Layer 1
10
71.747071
20
23.151569
70
0
0
VERTEX
8
Layer 1
10
72.428538
20
23.507168
70
0
0
VERTEX
8
Layer 1
10
73.918669
20
23.811968
70
0
0
VERTEX
8
Layer 1
10
74.596134
20
23.735768
70
0
0
VERTEX
8
Layer 1
10
75.137868
20
23.507168
70
0
0
VERTEX
8
Layer 1
10
75.493500
20
23.181202
70
0
0
VERTEX
8
Layer 1
10
75.612001
20
22.779036
70
0
0
VERTEX
8
Layer 1
10
75.612001
20
17.648242
70
0
0
VERTEX
8
Layer 1
10
75.696700
20
17.169876
70
0
0
VERTEX
8
Layer 1
10
75.950667
20
16.818510
70
0
0
VERTEX
8
Layer 1
10
76.331732
20
16.615307
70
0
0
VERTEX
8
Layer 1
10
76.797332
20
16.547577
70
0
0
VERTEX
8
Layer 1
10
77.800664
20
16.780407
70
0
0
VERTEX
8
Layer 1
10
78.643063
20
17.478909
70
0
0
VERTEX
8
Layer 1
10
79.227296
20
18.541481
70
0
0
VERTEX
8
Layer 1
10
79.421996
20
19.866506
70
0
0
VERTEX
8
Layer 1
10
79.341596
20
20.700475
70
0
0
VERTEX
8
Layer 1
10
79.100263
20
21.576771
70
0
0
VERTEX
8
Layer 1
10
78.321330
20
21.373571
70
0
0
VERTEX
8
Layer 1
10
77.868497
20
21.466701
70
0
0
VERTEX
8
Layer 1
10
77.457732
20
21.746104
70
0
0
VERTEX
8
Layer 1
10
77.178398
20
22.173670
70
0
0
VERTEX
8
Layer 1
10
77.085199
20
22.677436
70
0
0
VERTEX
8
Layer 1
10
77.178398
20
23.176962
70
0
0
VERTEX
8
Layer 1
10
77.457732
20
23.591835
70
0
0
VERTEX
8
Layer 1
10
77.893897
20
23.883931
70
0
0
VERTEX
8
Layer 1
10
78.422930
20
23.981301
70
0
0
VERTEX
8
Layer 1
10
78.956363
20
23.871231
70
0
0
VERTEX
8
Layer 1
10
79.405062
20
23.541035
70
0
0
VERTEX
8
Layer 1
10
79.769195
20
23.045732
70
0
0
VERTEX
8
Layer 1
10
80.014662
20
22.406503
70
0
0
VERTEX
8
Layer 1
10
80.243261
20
21.102631
70
0
0
VERTEX
8
Layer 1
10
80.319461
20
19.663306
70
0
0
VERTEX
8
Layer 1
10
80.230561
20
18.168935
70
0
0
VERTEX
8
Layer 1
10
79.963862
20
16.666110
70
0
0
VERTEX
8
Layer 1
10
79.565995
20
15.264885
70
0
0
VERTEX
8
Layer 1
10
79.049463
20
14.075313
70
0
0
VERTEX
8
Layer 1
10
77.779465
20
12.195716
70
0
0
VERTEX
8
Layer 1
10
77.048219
20
11.499330
70
0
0
VERTEX
8
Layer 1
10
76.310599
20
11.001914
70
0
0
VERTEX
8
Layer 1
10
75.566579
20
10.703466
70
0
0
VERTEX
8
Layer 1
10
74.816135
20
10.603984
70
0
0
VERTEX
8
Layer 1
10
74.138802
20
10.790251
70
0
0
VERTEX
8
Layer 1
10
73.546137
20
11.433717
70
0
0
VERTEX
8
Layer 1
10
72.665604
20
12.652915
70
0
0
VERTEX
8
Layer 1
10
73.105870
20
13.110115
70
0
0
VERTEX
8
Layer 1
10
74.528269
20
12.974648
70
0
0
VERTEX
8
Layer 1
10
75.433192
20
13.049791
70
0
0
VERTEX
8
Layer 1
10
76.251299
20
13.275218
70
0
0
VERTEX
8
Layer 1
10
76.982590
20
13.650926
70
0
0
VERTEX
8
Layer 1
10
77.627065
20
14.176913
70
0
0
VERTEX
8
Layer 1
10
78.196534
20
14.872232
70
0
0
VERTEX
8
Layer 1
10
78.702429
20
15.755938
70
0
0
VERTEX
8
Layer 1
10
79.523596
20
18.088508
70
0
0
VERTEX
8
Layer 1
10
78.888646
20
16.814273
70
0
0
VERTEX
8
Layer 1
10
78.033530
20
15.904108
70
0
0
VERTEX
8
Layer 1
10
76.958248
20
15.358011
70
0
0
VERTEX
8
Layer 1
10
75.662801
20
15.175979
70
0
0
VERTEX
8
Layer 1
10
74.659568
20
15.358009
70
0
0
VERTEX
8
Layer 1
10
73.817070
20
15.904111
70
0
0
VERTEX
8
Layer 1
10
73.258303
20
16.801577
70
0
0
VERTEX
8
Layer 1
10
73.072004
20
18.003842
70
0
0
VERTEX
8
Layer 1
10
73.072004
20
22.999169
70
0
0
VERTEX
8
Layer 1
10
72.250870
20
22.673203
70
0
0
VERTEX
8
Layer 1
10
71.649606
20
22.169437
70
0
0
VERTEX
8
Layer 1
10
71.192406
20
22.694369
70
0
0
VERTEX
8
Layer 1
10
71.192406
20
22.694369
70
0
0
SEQEND
8
Layer 1
0
POLYLINE
8
Layer 1
62
7
70
1
10
0.000000
20
0.000000
66
1
0
VERTEX
8
Layer 1
10
69.059603
20
23.557968
70
0
0
VERTEX
8
Layer 1
10
69.059603
20
16.970910
70
0
0
VERTEX
8
Layer 1
10
69.279736
20
16.242777
70
0
0
VERTEX
8
Layer 1
10
69.559069
20
16.052278
70
0
0
VERTEX
8
Layer 1
10
69.957068
20
15.988778
70
0
0
VERTEX
8
Layer 1
10
70.448068
20
16.111548
70
0
0
VERTEX
8
Layer 1
10
71.006933
20
16.479844
70
0
0
VERTEX
8
Layer 1
10
71.311733
20
16.073444
70
0
0
VERTEX
8
Layer 1
10
69.956969
20
15.146342
70
0
0
VERTEX
8
Layer 1
10
69.279674
20
14.914569
70
0
0
VERTEX
8
Layer 1
10
68.602403
20
14.837312
70
0
0
VERTEX
8
Layer 1
10
67.875230
20
14.931505
70
0
0
VERTEX
8
Layer 1
10
67.302639
20
15.214082
70
0
0
VERTEX
8
Layer 1
10
66.884631
20
15.685040
70
0
0
VERTEX
8
Layer 1
10
66.621206
20
16.344377
70
0
0
VERTEX
8
Layer 1
10
66.129032
20
15.685040
70
0
0
VERTEX
8
Layer 1
10
65.533174
20
15.214082
70
0
0
VERTEX
8
Layer 1
10
64.833633
20
14.931505
70
0
0
VERTEX
8
Layer 1
10
64.030409
20
14.837312
70
0
0
VERTEX
8
Layer 1
10
63.114915
20
14.915630
70
0
0
VERTEX
8
Layer 1
10
62.315878
20
15.150582
70
0
0
VERTEX
8
Layer 1
10
61.633275
20
15.542165
70
0
0
VERTEX
8
Layer 1
10
61.067079
20
16.090378
70
0
0
VERTEX
8
Layer 1
10
60.622580
20
16.767709
70
0
0
VERTEX
8
Layer 1
10
60.305080
20
17.529706
70
0
0
VERTEX
8
Layer 1
10
60.051081
20
19.307707
70
0
0
VERTEX
8
Layer 1
10
60.321981
20
21.098401
70
0
0
VERTEX
8
Layer 1
10
60.660643
20
21.863577
70
0
0
VERTEX
8
Layer 1
10
61.134813
20
22.541969
70
0
0
VERTEX
8
Layer 1
10
61.739058
20
23.097594
70
0
0
VERTEX
8
Layer 1
10
62.451278
20
23.494468
70
0
0
VERTEX
8
Layer 1
10
63.271498
20
23.732593
70
0
0
VERTEX
8
Layer 1
10
64.199742
20
23.811968
70
0
0
VERTEX
8
Layer 1
10
64.909846
20
23.736825
70
0
0
VERTEX
8
Layer 1
10
65.533207
20
23.511398
70
0
0
VERTEX
8
Layer 1
10
66.069802
20
23.135690
70
0
0
VERTEX
8
Layer 1
10
66.519606
20
22.609703
70
0
0
VERTEX
8
Layer 1
10
66.519606
20
23.557968
70
0
0
VERTEX
8
Layer 1
10
69.059603
20
23.557968
70
0
0
VERTEX
8
Layer 1
10
69.059603
20
23.557968
70
0
0
SEQEND
8
Layer 1
0
POLYLINE
8
Layer 1
62
7
70
1
10
0.000000
20
0.000000
66
1
0
VERTEX
8
Layer 1
10
63.149877
20
21.898504
70
0
0
VERTEX
8
Layer 1
10
62.794244
20
20.780908
70
0
0
VERTEX
8
Layer 1
10
62.675744
20
19.324640
70
0
0
VERTEX
8
Layer 1
10
62.794244
20
17.868372
70
0
0
VERTEX
8
Layer 1
10
63.149877
20
16.750777
70
0
0
VERTEX
8
Layer 1
10
63.746710
20
16.039581
70
0
0
VERTEX
8
Layer 1
10
64.589208
20
15.802511
70
0
0
VERTEX
8
Layer 1
10
65.452741
20
16.039581
70
0
0
VERTEX
8
Layer 1
10
66.079340
20
16.750777
70
0
0
VERTEX
8
Layer 1
10
66.472973
20
17.876845
70
0
0
VERTEX
8
Layer 1
10
66.604272
20
19.324640
70
0
0
VERTEX
8
Layer 1
10
66.472973
20
20.768205
70
0
0
VERTEX
8
Layer 1
10
66.079340
20
21.881570
70
0
0
VERTEX
8
Layer 1
10
65.452741
20
22.605469
70
0
0
VERTEX
8
Layer 1
10
64.589208
20
22.846769
70
0
0
VERTEX
8
Layer 1
10
63.746710
20
22.609699
70
0
0
VERTEX
8
Layer 1
10
63.149877
20
21.898504
70
0
0
VERTEX
8
Layer 1
10
63.149877
20
21.898504
70
0
0
SEQEND
8
Layer 1
0
POLYLINE
8
Layer 1
62
7
70
1
10
0.000000
20
0.000000
66
1
0
VERTEX
8
Layer 1
10
52.616827
20
26.927697
70
0
0
VERTEX
8
Layer 1
10
53.171493
20
27.384897
70
0
0
VERTEX
8
Layer 1
10
53.852959
20
27.740496
70
0
0
VERTEX
8
Layer 1
10
55.343091
20
28.045296
70
0
0
VERTEX
8
Layer 1
10
56.020555
20
27.969096
70
0
0
VERTEX
8
Layer 1
10
56.562289
20
27.740496
70
0
0
VERTEX
8
Layer 1
10
56.917922
20
27.414530
70
0
0
VERTEX
8
Layer 1
10
57.036422
20
27.012364
70
0
0
VERTEX
8
Layer 1
10
57.036422
20
16.970910
70
0
0
VERTEX
8
Layer 1
10
57.256555
20
16.242777
70
0
0
VERTEX
8
Layer 1
10
57.535988
20
16.052278
70
0
0
VERTEX
8
Layer 1
10
57.933887
20
15.988778
70
0
0
VERTEX
8
Layer 1
10
58.424987
20
16.111548
70
0
0
VERTEX
8
Layer 1
10
58.983753
20
16.479844
70
0
0
VERTEX
8
Layer 1
10
59.288552
20
16.073444
70
0
0
VERTEX
8
Layer 1
10
57.933987
20
15.146342
70
0
0
VERTEX
8
Layer 1
10
57.256642
20
14.914569
70
0
0
VERTEX
8
Layer 1
10
56.579222
20
14.837312
70
0
0
VERTEX
8
Layer 1
10
55.667999
20
14.992887
70
0
0
VERTEX
8
Layer 1
10
55.017124
20
15.459612
70
0
0
VERTEX
8
Layer 1
10
54.626600
20
16.237486
70
0
0
VERTEX
8
Layer 1
10
54.496425
20
17.326509
70
0
0
VERTEX
8
Layer 1
10
54.496425
20
27.232497
70
0
0
VERTEX
8
Layer 1
10
53.675292
20
26.906531
70
0
0
VERTEX
8
Layer 1
10
53.074027
20
26.402765
70
0
0
VERTEX
8
Layer 1
10
52.616827
20
26.927697
70
0
0
VERTEX
8
Layer 1
10
52.616827
20
26.927697
70
0
0
SEQEND
8
Layer 1
0
POLYLINE
8
Layer 1
62
7
70
1
10
0.000000
20
0.000000
66
1
0
VERTEX
8
Layer 1
10
42.656600
20
26.267298
70
0
0
VERTEX
8
Layer 1
10
42.656600
20
26.944631
70
0
0
VERTEX
8
Layer 1
10
46.381929
20
26.944631
70
0
0
VERTEX
8
Layer 1
10
48.270006
20
26.819749
70
0
0
VERTEX
8
Layer 1
10
49.768625
20
26.445101
70
0
0
VERTEX
8
Layer 1
10
50.877761
20
25.820686
70
0
0
VERTEX
8
Layer 1
10
51.597389
20
24.946500
70
0
0
VERTEX
8
Layer 1
10
51.914922
20
24.082898
70
0
0
VERTEX
8
Layer 1
10
52.020722
20
23.049969
70
0
0
VERTEX
8
Layer 1
10
51.914922
20
22.017040
70
0
0
VERTEX
8
Layer 1
10
51.597389
20
21.153438
70
0
0
VERTEX
8
Layer 1
10
51.093689
20
20.463405
70
0
0
VERTEX
8
Layer 1
10
50.395124
20
19.951173
70
0
0
VERTEX
8
Layer 1
10
48.646892
20
19.354277
70
0
0
VERTEX
8
Layer 1
10
46.381929
20
19.155307
70
0
0
VERTEX
8
Layer 1
10
46.212596
20
19.155307
70
0
0
VERTEX
8
Layer 1
10
46.212596
20
15.768645
70
0
0
VERTEX
8
Layer 1
10
47.567261
20
15.768645
70
0
0
VERTEX
8
Layer 1
10
47.567261
20
15.091312
70
0
0
VERTEX
8
Layer 1
10
42.656600
20
15.091312
70
0
0
VERTEX
8
Layer 1
10
42.656600
20
15.768645
70
0
0
VERTEX
8
Layer 1
10
43.672599
20
15.768645
70
0
0
VERTEX
8
Layer 1
10
43.672599
20
26.267298
70
0
0
VERTEX
8
Layer 1
10
42.656600
20
26.267298
70
0
0
VERTEX
8
Layer 1
10
42.656600
20
26.267298
70
0
0
SEQEND
8
Layer 1
0
POLYLINE
8
Layer 1
62
7
70
1
10
0.000000
20
0.000000
66
1
0
VERTEX
8
Layer 1
10
46.381929
20
26.267298
70
0
0
VERTEX
8
Layer 1
10
46.212596
20
26.267298
70
0
0
VERTEX
8
Layer 1
10
46.212596
20
19.832640
70
0
0
VERTEX
8
Layer 1
10
46.381929
20
19.832640
70
0
0
VERTEX
8
Layer 1
10
47.605460
20
20.044309
70
0
0
VERTEX
8
Layer 1
10
48.600193
20
20.679305
70
0
0
VERTEX
8
Layer 1
10
49.260625
20
21.695301
70
0
0
VERTEX
8
Layer 1
10
49.480725
20
23.049969
70
0
0
VERTEX
8
Layer 1
10
49.260625
20
24.404637
70
0
0
VERTEX
8
Layer 1
10
48.600193
20
25.420632
70
0
0
VERTEX
8
Layer 1
10
47.605460
20
26.055628
70
0
0
VERTEX
8
Layer 1
10
46.381929
20
26.267298
70
0
0
VERTEX
8
Layer 1
10
46.381929
20
26.267298
70
0
0
SEQEND
8
Layer 1
0
POLYLINE
8
Layer 1
62
7
70
1
10
0.000000
20
0.000000
66
1
0
VERTEX
8
Layer 1
10
39.339788
20
10.646318
70
0
0
VERTEX
8
Layer 1
10
32.160064
20
10.646318
70
0
0
VERTEX
8
Layer 1
10
32.160064
20
11.323650
70
0
0
VERTEX
8
Layer 1
10
36.139392
20
15.353778
70
0
0
VERTEX
8
Layer 1
10
36.902375
20
16.247008
70
0
0
VERTEX
8
Layer 1
10
37.447424
20
17.165643
70
0
0
VERTEX
8
Layer 1
10
37.774490
20
18.109677
70
0
0
VERTEX
8
Layer 1
10
37.883523
20
19.079107
70
0
0
VERTEX
8
Layer 1
10
37.709924
20
20.179772
70
0
0
VERTEX
8
Layer 1
10
37.189257
20
21.077238
70
0
0
VERTEX
8
Layer 1
10
36.418725
20
21.674134
70
0
0
VERTEX
8
Layer 1
10
35.462059
20
21.873104
70
0
0
VERTEX
8
Layer 1
10
34.124328
20
21.636037
70
0
0
VERTEX
8
Layer 1
10
34.767794
20
21.144971
70
0
0
VERTEX
8
Layer 1
10
35.021793
20
20.315239
70
0
0
VERTEX
8
Layer 1
10
34.920194
20
19.845343
70
0
0
VERTEX
8
Layer 1
10
34.615394
20
19.417773
70
0
0
VERTEX
8
Layer 1
10
34.170894
20
19.112974
70
0
0
VERTEX
8
Layer 1
10
33.650195
20
19.011374
70
0
0
VERTEX
8
Layer 1
10
33.133696
20
19.108744
70
0
0
VERTEX
8
Layer 1
10
32.701930
20
19.400840
70
0
0
VERTEX
8
Layer 1
10
32.409764
20
19.845339
70
0
0
VERTEX
8
Layer 1
10
32.312463
20
20.366039
70
0
0
VERTEX
8
Layer 1
10
32.383359
20
20.880393
70
0
0
VERTEX
8
Layer 1
10
32.596063
20
21.339711
70
0
0
VERTEX
8
Layer 1
10
33.446995
20
22.093237
70
0
0
VERTEX
8
Layer 1
10
34.738061
20
22.588536
70
0
0
VERTEX
8
Layer 1
10
36.308725
20
22.753636
70
0
0
VERTEX
8
Layer 1
10
37.866491
20
22.525036
70
0
0
VERTEX
8
Layer 1
10
39.119655
20
21.839237
70
0
0
VERTEX
8
Layer 1
10
39.945121
20
20.835942
70
0
0
VERTEX
8
Layer 1
10
40.220320
20
19.620973
70
0
0
VERTEX
8
Layer 1
10
40.059421
20
18.638844
70
0
0
VERTEX
8
Layer 1
10
39.576854
20
17.724442
70
0
0
VERTEX
8
Layer 1
10
37.189257
20
15.184445
70
0
0
VERTEX
8
Layer 1
10
34.090461
20
12.204182
70
0
0
VERTEX
8
Layer 1
10
36.901391
20
12.204182
70
0
0
VERTEX
8
Layer 1
10
37.836824
20
12.280382
70
0
0
VERTEX
8
Layer 1
10
38.476189
20
12.508982
70
0
0
VERTEX
8
Layer 1
10
38.886756
20
12.932312
70
0
0
VERTEX
8
Layer 1
10
39.136588
20
13.592714
70
0
0
VERTEX
8
Layer 1
10
39.255121
20
14.202313
70
0
0
VERTEX
8
Layer 1
10
39.915521
20
14.202313
70
0
0
VERTEX
8
Layer 1
10
40.372720
20
11.357517
70
0
0
VERTEX
8
Layer 1
10
40.220320
20
10.849517
70
0
0
VERTEX
8
Layer 1
10
39.881654
20
10.663251
70
0
0
VERTEX
8
Layer 1
10
39.339788
20
10.646318
70
0
0
VERTEX
8
Layer 1
10
39.339788
20
10.646318
70
0
0
SEQEND
8
Layer 1
0
POLYLINE
8
Layer 1
62
7
70
1
10
0.000000
20
0.000000
66
1
0
VERTEX
8
Layer 1
10
27.587276
20
26.267298
70
0
0
VERTEX
8
Layer 1
10
26.401997
20
26.267298
70
0
0
VERTEX
8
Layer 1
10
26.401997
20
20.476105
70
0
0
VERTEX
8
Layer 1
10
29.957939
20
20.476105
70
0
0
VERTEX
8
Layer 1
10
29.957939
20
19.714106
70
0
0
VERTEX
8
Layer 1
10
26.401997
20
19.714106
70
0
0
VERTEX
8
Layer 1
10
26.401997
20
15.768645
70
0
0
VERTEX
8
Layer 1
10
28.264608
20
15.768645
70
0
0
VERTEX
8
Layer 1
10
28.264608
20
15.091312
70
0
0
VERTEX
8
Layer 1
10
22.846001
20
15.091312
70
0
0
VERTEX
8
Layer 1
10
22.846001
20
15.768645
70
0
0
VERTEX
8
Layer 1
10
23.862000
20
15.768645
70
0
0
VERTEX
8
Layer 1
10
23.862000
20
26.267298
70
0
0
VERTEX
8
Layer 1
10
22.846001
20
26.267298
70
0
0
VERTEX
8
Layer 1
10
22.846001
20
26.944631
70
0
0
VERTEX
8
Layer 1
10
30.110339
20
26.944631
70
0
0
VERTEX
8
Layer 1
10
30.652205
20
26.910764
70
0
0
VERTEX
8
Layer 1
10
30.990871
20
26.724497
70
0
0
VERTEX
8
Layer 1
10
31.143271
20
26.233431
70
0
0
VERTEX
8
Layer 1
10
30.686072
20
23.388635
70
0
0
VERTEX
8
Layer 1
10
30.025673
20
23.388635
70
0
0
VERTEX
8
Layer 1
10
29.687006
20
25.065033
70
0
0
VERTEX
8
Layer 1
10
29.466906
20
25.691562
70
0
0
VERTEX
8
Layer 1
10
29.111274
20
26.047165
70
0
0
VERTEX
8
Layer 1
10
28.527074
20
26.212268
70
0
0
VERTEX
8
Layer 1
10
27.587276
20
26.267298
70
0
0
VERTEX
8
Layer 1
10
27.587276
20
26.267298
70
0
0
SEQEND
8
Layer 1
0
POLYLINE
8
Layer 1
62
7
70
1
10
0.000000
20
0.000000
66
1
0
VERTEX
8
Layer 1
10
13.006292
20
17.140243
70
0
0
VERTEX
8
Layer 1
10
11.511934
20
17.292643
70
0
0
VERTEX
8
Layer 1
10
10.076829
20
17.749842
70
0
0
VERTEX
8
Layer 1
10
8.768734
20
18.448338
70
0
0
VERTEX
8
Layer 1
10
7.655365
20
19.358507
70
0
0
VERTEX
8
Layer 1
10
6.740966
20
20.471875
70
0
0
VERTEX
8
Layer 1
10
6.029767
20
21.779970
70
0
0
VERTEX
8
Layer 1
10
5.585271
20
23.215065
70
0
0
VERTEX
8
Layer 1
10
5.437101
20
24.709433
70
0
0
VERTEX
8
Layer 1
10
5.585271
20
26.203801
70
0
0
VERTEX
8
Layer 1
10
6.029767
20
27.638896
70
0
0
VERTEX
8
Layer 1
10
6.740966
20
28.946991
70
0
0
VERTEX
8
Layer 1
10
7.655365
20
30.060360
70
0
0
VERTEX
8
Layer 1
10
8.768734
20
30.970529
70
0
0
VERTEX
8
Layer 1
10
10.076829
20
31.669025
70
0
0
VERTEX
8
Layer 1
10
11.511934
20
32.126224
70
0
0
VERTEX
8
Layer 1
10
13.006292
20
32.278624
70
0
0
VERTEX
8
Layer 1
10
14.500660
20
32.126224
70
0
0
VERTEX
8
Layer 1
10
15.935755
20
31.669025
70
0
0
VERTEX
8
Layer 1
10
17.243860
20
30.970529
70
0
0
VERTEX
8
Layer 1
10
18.357218
20
30.060360
70
0
0
VERTEX
8
Layer 1
10
19.267387
20
28.946991
70
0
0
VERTEX
8
Layer 1
10
19.965883
20
27.638896
70
0
0
VERTEX
8
Layer 1
10
20.423082
20
26.258831
70
0
0
VERTEX
8
Layer 1
10
20.575482
20
24.929566
70
0
0
VERTEX
8
Layer 1
10
20.490822
20
23.752695
70
0
0
VERTEX
8
Layer 1
10
20.236816
20
22.795969
70
0
0
VERTEX
8
Layer 1
10
19.860063
20
22.033973
70
0
0
VERTEX
8
Layer 1
10
19.373217
20
21.441304
70
0
0
VERTEX
8
Layer 1
10
18.209062
20
20.692008
70
0
0
VERTEX
8
Layer 1
10
16.917887
20
20.442239
70
0
0
VERTEX
8
Layer 1
10
16.100858
20
20.548069
70
0
0
VERTEX
8
Layer 1
10
15.376955
20
20.865572
70
0
0
VERTEX
8
Layer 1
10
14.818163
20
21.386268
70
0
0
VERTEX
8
Layer 1
10
14.496423
20
22.067837
70
0
0
VERTEX
8
Layer 1
10
14.327090
20
22.067837
70
0
0
VERTEX
8
Layer 1
10
13.851908
20
21.541849
70
0
0
VERTEX
8
Layer 1
10
13.306868
20
21.166141
70
0
0
VERTEX
8
Layer 1
10
12.691973
20
20.940714
70
0
0
VERTEX
8
Layer 1
10
12.007226
20
20.865572
70
0
0
VERTEX
8
Layer 1
10
11.325669
20
20.934364
70
0
0
VERTEX
8
Layer 1
10
10.720305
20
21.140741
70
0
0
VERTEX
8
Layer 1
10
10.191135
20
21.484699
70
0
0
VERTEX
8
Layer 1
10
9.738163
20
21.966237
70
0
0
VERTEX
8
Layer 1
10
9.128563
20
23.215065
70
0
0
VERTEX
8
Layer 1
10
8.925364
20
24.726367
70
0
0
VERTEX
8
Layer 1
10
9.158203
20
26.229198
70
0
0
VERTEX
8
Layer 1
10
9.856696
20
27.452630
70
0
0
VERTEX
8
Layer 1
10
10.376344
20
27.934167
70
0
0
VERTEX
8
Layer 1
10
10.987001
20
28.278126
70
0
0
VERTEX
8
Layer 1
10
11.688671
20
28.484502
70
0
0
VERTEX
8
Layer 1
10
12.481359
20
28.553295
70
0
0
VERTEX
8
Layer 1
10
13.556634
20
28.358565
70
0
0
VERTEX
8
Layer 1
10
14.377890
20
27.774363
70
0
0
VERTEX
8
Layer 1
10
14.784289
20
28.367029
70
0
0
VERTEX
8
Layer 1
10
16.613087
20
28.367029
70
0
0
VERTEX
8
Layer 1
10
16.613087
20
22.914502
70
0
0
VERTEX
8
Layer 1
10
16.680827
20
22.300676
70
0
0
VERTEX
8
Layer 1
10
16.884020
20
21.847704
70
0
0
VERTEX
8
Layer 1
10
17.226926
20
21.568301
70
0
0
VERTEX
8
Layer 1
10
17.679886
20
21.475171
70
0
0
VERTEX
8
Layer 1
10
18.399562
20
21.686840
70
0
0
VERTEX
8
Layer 1
10
19.068417
20
22.321836
70
0
0
VERTEX
8
Layer 1
10
19.551023
20
23.350535
70
0
0
VERTEX
8
Layer 1
10
19.711883
20
24.709433
70
0
0
VERTEX
8
Layer 1
10
19.588058
20
26.039762
70
0
0
VERTEX
8
Layer 1
10
19.216584
20
27.270603
70
0
0
VERTEX
8
Layer 1
10
18.597460
20
28.401959
70
0
0
VERTEX
8
Layer 1
10
17.730686
20
29.433827
70
0
0
VERTEX
8
Layer 1
10
16.698817
20
30.300601
70
0
0
VERTEX
8
Layer 1
10
15.567462
20
30.919726
70
0
0
VERTEX
8
Layer 1
10
14.336620
20
31.291200
70
0
0
VERTEX
8
Layer 1
10
13.006292
20
31.415025
70
0
0
VERTEX
8
Layer 1
10
11.674918
20
31.291200
70
0
0
VERTEX
8
Layer 1
10
10.440902
20
30.919726
70
0
0
VERTEX
8
Layer 1
10
9.304249
20
30.300601
70
0
0
VERTEX
8
Layer 1
10
8.264964
20
29.433827
70
0
0
VERTEX
8
Layer 1
10
7.405603
20
28.401959
70
0
0
VERTEX
8
Layer 1
10
6.791770
20
27.270603
70
0
0
VERTEX
8
Layer 1
10
6.423468
20
26.039762
70
0
0
VERTEX
8
Layer 1
10
6.300700
20
24.709433
70
0
0
VERTEX
8
Layer 1
10
6.423468
20
23.379105
70
0
0
VERTEX
8
Layer 1
10
6.791770
20
22.148263
70
0
0
VERTEX
8
Layer 1
10
7.405603
20
21.016908
70
0
0
VERTEX
8
Layer 1
10
8.264964
20
19.985039
70
0
0
VERTEX
8
Layer 1
10
9.304249
20
19.118265
70
0
0
VERTEX
8
Layer 1
10
10.440902
20
18.499141
70
0
0
VERTEX
8
Layer 1
10
11.674918
20
18.127667
70
0
0
VERTEX
8
Layer 1
10
13.006292
20
18.003842
70
0
0
VERTEX
8
Layer 1
10
14.771590
20
18.236672
70
0
0
VERTEX
8
Layer 1
10
16.409887
20
18.935174
70
0
0
VERTEX
8
Layer 1
10
16.799354
20
18.190108
70
0
0
VERTEX
8
Layer 1
10
14.962096
20
17.402713
70
0
0
VERTEX
8
Layer 1
10
13.006292
20
17.140243
70
0
0
VERTEX
8
Layer 1
10
13.006292
20
17.140243
70
0
0
SEQEND
8
Layer 1
0
POLYLINE
8
Layer 1
62
7
70
1
10
0.000000
20
0.000000
66
1
0
VERTEX
8
Layer 1
10
11.702427
20
26.758364
70
0
0
VERTEX
8
Layer 1
10
11.435727
20
25.877839
70
0
0
VERTEX
8
Layer 1
10
11.346827
20
24.726367
70
0
0
VERTEX
8
Layer 1
10
11.435727
20
23.570665
70
0
0
VERTEX
8
Layer 1
10
11.702427
20
22.677436
70
0
0
VERTEX
8
Layer 1
10
12.168099
20
22.105937
70
0
0
VERTEX
8
Layer 1
10
12.820025
20
21.915437
70
0
0
VERTEX
8
Layer 1
10
13.615891
20
22.169437
70
0
0
VERTEX
8
Layer 1
10
14.191624
20
22.846769
70
0
0
VERTEX
8
Layer 1
10
14.191624
20
26.724497
70
0
0
VERTEX
8
Layer 1
10
13.615891
20
27.300230
70
0
0
VERTEX
8
Layer 1
10
12.820025
20
27.520363
70
0
0
VERTEX
8
Layer 1
10
12.168099
20
27.329863
70
0
0
VERTEX
8
Layer 1
10
11.702427
20
26.758364
70
0
0
VERTEX
8
Layer 1
10
11.702427
20
26.758364
70
0
0
SEQEND
8
Layer 1
0
POLYLINE
8
Layer 1
62
7
70
1
10
0.000000
20
0.000000
66
1
0
VERTEX
8
Layer 1
10
21.576664
20
10.682036
70
0
0
VERTEX
8
Layer 1
10
21.503413
20
12.222154
70
0
0
VERTEX
8
Layer 1
10
21.251103
20
13.453182
70
0
0
VERTEX
8
Layer 1
10
20.770901
20
14.407095
70
0
0
VERTEX
8
Layer 1
10
20.013971
20
15.115869
70
0
0
VERTEX
8
Layer 1
10
18.931480
20
15.611477
70
0
0
VERTEX
8
Layer 1
10
17.474594
20
15.925896
70
0
0
VERTEX
8
Layer 1
10
15.594479
20
16.091099
70
0
0
VERTEX
8
Layer 1
10
13.242300
20
16.139061
70
0
0
VERTEX
8
Layer 1
10
10.890121
20
16.091099
70
0
0
VERTEX
8
Layer 1
10
9.010005
20
15.925896
70
0
0
VERTEX
8
Layer 1
10
7.553119
20
15.611477
70
0
0
VERTEX
8
Layer 1
10
6.470629
20
15.115869
70
0
0
VERTEX
8
Layer 1
10
5.713699
20
14.407095
70
0
0
VERTEX
8
Layer 1
10
5.233496
20
13.453182
70
0
0
VERTEX
8
Layer 1
10
4.981187
20
12.222154
70
0
0
VERTEX
8
Layer 1
10
4.907935
20
10.682036
70
0
0
VERTEX
8
Layer 1
10
4.981187
20
9.141881
70
0
0
VERTEX
8
Layer 1
10
5.233496
20
7.910835
70
0
0
VERTEX
8
Layer 1
10
5.713699
20
6.956920
70
0
0
VERTEX
8
Layer 1
10
6.470629
20
6.248155
70
0
0
VERTEX
8
Layer 1
10
7.553119
20
5.752561
70
0
0
VERTEX
8
Layer 1
10
9.010005
20
5.438158
70
0
0
VERTEX
8
Layer 1
10
10.890121
20
5.272969
70
0
0
VERTEX
8
Layer 1
10
13.242300
20
5.225012
70
0
0
VERTEX
8
Layer 1
10
15.594479
20
5.272969
70
0
0
VERTEX
8
Layer 1
10
17.474594
20
5.438158
70
0
0
VERTEX
8
Layer 1
10
18.931480
20
5.752561
70
0
0
VERTEX
8
Layer 1
10
20.013971
20
6.248155
70
0
0
VERTEX
8
Layer 1
10
20.770901
20
6.956920
70
0
0
VERTEX
8
Layer 1
10
21.251103
20
7.910835
70
0
0
VERTEX
8
Layer 1
10
21.503413
20
9.141881
70
0
0
VERTEX
8
Layer 1
10
21.576664
20
10.682036
70
0
0
VERTEX
8
Layer 1
10
21.576664
20
10.682036
70
0
0
SEQEND
8
Layer 1
0
POLYLINE
8
Layer 1
62
7
70
1
10
0.000000
20
0.000000
66
1
0
VERTEX
8
Layer 1
10
11.524733
20
9.260035
70
0
0
VERTEX
8
Layer 1
10
16.025290
20
10.788002
70
0
0
VERTEX
8
Layer 1
10
11.521267
20
12.326420
70
0
0
VERTEX
8
Layer 1
10
11.524733
20
9.260485
70
0
0
VERTEX
8
Layer 1
10
11.524733
20
9.260035
70
0
0
VERTEX
8
Layer 1
10
11.524733
20
9.260035
70
0
0
SEQEND
8
Layer 1
0
POLYLINE
8
Layer 1
62
7
70
1
10
0.000000
20
0.000000
66
1
0
VERTEX
8
Layer 1
10
115.740775
20
14.710313
70
0
0
VERTEX
8
Layer 1
10
115.977841
20
13.135515
70
0
0
VERTEX
8
Layer 1
10
116.231841
20
11.882450
70
0
0
VERTEX
8
Layer 1
10
116.130241
20
11.450653
70
0
0
VERTEX
8
Layer 1
10
115.825442
20
11.035784
70
0
0
VERTEX
8
Layer 1
10
115.389277
20
10.743688
70
0
0
VERTEX
8
Layer 1
10
114.860243
20
10.646318
70
0
0
VERTEX
8
Layer 1
10
114.331011
20
10.760618
70
0
0
VERTEX
8
Layer 1
10
113.895044
20
11.103517
70
0
0
VERTEX
8
Layer 1
10
113.615611
20
11.611517
70
0
0
VERTEX
8
Layer 1
10
113.522511
20
12.221116
70
0
0
VERTEX
8
Layer 1
10
113.674911
20
13.677381
70
0
0
VERTEX
8
Layer 1
10
114.216777
20
15.624711
70
0
0
VERTEX
8
Layer 1
10
115.419042
20
18.164708
70
0
0
VERTEX
8
Layer 1
10
116.324875
20
19.515140
70
0
0
VERTEX
8
Layer 1
10
117.383306
20
20.789372
70
0
0
VERTEX
8
Layer 1
10
117.908239
20
21.365104
70
0
0
VERTEX
8
Layer 1
10
114.775576
20
21.365104
70
0
0
VERTEX
8
Layer 1
10
113.839945
20
21.288904
70
0
0
VERTEX
8
Layer 1
10
113.200778
20
21.060305
70
0
0
VERTEX
8
Layer 1
10
112.790013
20
20.636975
70
0
0
VERTEX
8
Layer 1
10
112.540379
20
19.976573
70
0
0
VERTEX
8
Layer 1
10
112.387979
20
19.197640
70
0
0
VERTEX
8
Layer 1
10
111.727580
20
19.197640
70
0
0
VERTEX
8
Layer 1
10
111.270381
20
22.042437
70
0
0
VERTEX
8
Layer 1
10
111.422780
20
22.533503
70
0
0
VERTEX
8
Layer 1
10
111.744513
20
22.719769
70
0
0
VERTEX
8
Layer 1
10
112.303313
20
22.753636
70
0
0
VERTEX
8
Layer 1
10
119.313704
20
22.753636
70
0
0
VERTEX
8
Layer 1
10
119.313704
20
22.076303
70
0
0
VERTEX
8
Layer 1
10
117.750510
20
20.098286
70
0
0
VERTEX
8
Layer 1
10
116.633974
20
18.211282
70
0
0
VERTEX
8
Layer 1
10
115.964071
20
16.415290
70
0
0
VERTEX
8
Layer 1
10
115.740775
20
14.710313
70
0
0
VERTEX
8
Layer 1
10
115.740775
20
14.710313
70
0
0
SEQEND
8
Layer 1
0
POLYLINE
8
Layer 1
62
7
70
1
10
0.000000
20
0.000000
66
1
0
VERTEX
8
Layer 1
10
101.216227
20
16.820627
70
0
0
VERTEX
8
Layer 1
10
101.293472
20
18.080038
70
0
0
VERTEX
8
Layer 1
10
101.525227
20
19.233620
70
0
0
VERTEX
8
Layer 1
10
101.911514
20
20.281371
70
0
0
VERTEX
8
Layer 1
10
102.452358
20
21.223288
70
0
0
VERTEX
8
Layer 1
10
103.117962
20
22.008574
70
0
0
VERTEX
8
Layer 1
10
103.878891
20
22.569489
70
0
0
VERTEX
8
Layer 1
10
104.735119
20
22.906037
70
0
0
VERTEX
8
Layer 1
10
105.686621
20
23.018219
70
0
0
VERTEX
8
Layer 1
10
106.637975
20
22.906037
70
0
0
VERTEX
8
Layer 1
10
107.494153
20
22.569489
70
0
0
VERTEX
8
Layer 1
10
108.255131
20
22.008574
70
0
0
VERTEX
8
Layer 1
10
108.920884
20
21.223288
70
0
0
VERTEX
8
Layer 1
10
109.461617
20
20.281371
70
0
0
VERTEX
8
Layer 1
10
109.847916
20
19.233620
70
0
0
VERTEX
8
Layer 1
10
110.079732
20
18.080038
70
0
0
VERTEX
8
Layer 1
10
110.157015
20
16.820627
70
0
0
VERTEX
8
Layer 1
10
110.079732
20
15.561215
70
0
0
VERTEX
8
Layer 1
10
109.847916
20
14.407633
70
0
0
VERTEX
8
Layer 1
10
109.461617
20
13.359882
70
0
0
VERTEX
8
Layer 1
10
108.920884
20
12.417966
70
0
0
VERTEX
8
Layer 1
10
108.255131
20
11.647504
70
0
0
VERTEX
8
Layer 1
10
107.494153
20
11.097170
70
0
0
VERTEX
8
Layer 1
10
106.637975
20
10.766969
70
0
0
VERTEX
8
Layer 1
10
105.686621
20
10.656901
70
0
0
VERTEX
8
Layer 1
10
104.735119
20
10.768026
70
0
0
VERTEX
8
Layer 1
10
103.878891
20
11.101401
70
0
0
VERTEX
8
Layer 1
10
103.117962
20
11.657025
70
0
0
VERTEX
8
Layer 1
10
102.452358
20
12.434899
70
0
0
VERTEX
8
Layer 1
10
101.911514
20
13.375755
70
0
0
VERTEX
8
Layer 1
10
101.525227
20
14.420326
70
0
0
VERTEX
8
Layer 1
10
101.293472
20
15.568616
70
0
0
VERTEX
8
Layer 1
10
101.216227
20
16.820627
70
0
0
VERTEX
8
Layer 1
10
101.216227
20
16.820627
70
0
0
SEQEND
8
Layer 1
0
POLYLINE
8
Layer 1
62
7
70
1
10
0.000000
20
0.000000
66
1
0
VERTEX
8
Layer 1
10
107.176752
20
20.766088
70
0
0
VERTEX
8
Layer 1
10
106.550154
20
21.934484
70
0
0
VERTEX
8
Layer 1
10
106.147979
20
22.226585
70
0
0
VERTEX
8
Layer 1
10
105.686621
20
22.323953
70
0
0
VERTEX
8
Layer 1
10
105.224068
20
22.226585
70
0
0
VERTEX
8
Layer 1
10
104.818690
20
21.934484
70
0
0
VERTEX
8
Layer 1
10
104.179556
20
20.766088
70
0
0
VERTEX
8
Layer 1
10
103.798557
20
19.009257
70
0
0
VERTEX
8
Layer 1
10
103.671557
20
16.820627
70
0
0
VERTEX
8
Layer 1
10
103.798557
20
14.644699
70
0
0
VERTEX
8
Layer 1
10
104.179556
20
12.892098
70
0
0
VERTEX
8
Layer 1
10
104.818690
20
11.736396
70
0
0
VERTEX
8
Layer 1
10
105.224068
20
11.447474
70
0
0
VERTEX
8
Layer 1
10
105.686621
20
11.351167
70
0
0
VERTEX
8
Layer 1
10
106.147979
20
11.447474
70
0
0
VERTEX
8
Layer 1
10
106.550154
20
11.736396
70
0
0
VERTEX
8
Layer 1
10
107.176752
20
12.892098
70
0
0
VERTEX
8
Layer 1
10
107.570386
20
14.644699
70
0
0
VERTEX
8
Layer 1
10
107.701685
20
16.820627
70
0
0
VERTEX
8
Layer 1
10
107.570386
20
19.009257
70
0
0
VERTEX
8
Layer 1
10
107.176752
20
20.766088
70
0
0
VERTEX
8
Layer 1
10
107.176752
20
20.766088
70
0
0
SEQEND
8
Layer 1
0
POLYLINE
8
Layer 1
62
7
70
1
10
0.000000
20
0.000000
66
1
0
VERTEX
8
Layer 1
10
98.347353
20
23.811968
70
0
0
VERTEX
8
Layer 1
10
98.728353
20
23.570668
70
0
0
VERTEX
8
Layer 1
10
98.855353
20
22.846769
70
0
0
VERTEX
8
Layer 1
10
98.855353
20
16.970910
70
0
0
VERTEX
8
Layer 1
10
99.075486
20
16.242777
70
0
0
VERTEX
8
Layer 1
10
99.354819
20
16.052278
70
0
0
VERTEX
8
Layer 1
10
99.752818
20
15.988778
70
0
0
VERTEX
8
Layer 1
10
100.243818
20
16.111548
70
0
0
VERTEX
8
Layer 1
10
100.802683
20
16.479844
70
0
0
VERTEX
8
Layer 1
10
101.107483
20
16.073444
70
0
0
VERTEX
8
Layer 1
10
99.752719
20
15.146342
70
0
0
VERTEX
8
Layer 1
10
99.075424
20
14.914569
70
0
0
VERTEX
8
Layer 1
10
98.398153
20
14.837312
70
0
0
VERTEX
8
Layer 1
10
97.486929
20
14.992887
70
0
0
VERTEX
8
Layer 1
10
96.836055
20
15.459612
70
0
0
VERTEX
8
Layer 1
10
96.445531
20
16.237486
70
0
0
VERTEX
8
Layer 1
10
96.315356
20
17.326509
70
0
0
VERTEX
8
Layer 1
10
96.315356
20
22.084770
70
0
0
VERTEX
8
Layer 1
10
94.384958
20
21.644504
70
0
0
VERTEX
8
Layer 1
10
94.092792
20
20.086639
70
0
0
VERTEX
8
Layer 1
10
93.487493
20
18.528774
70
0
0
VERTEX
8
Layer 1
10
92.793227
20
18.731974
70
0
0
VERTEX
8
Layer 1
10
93.157161
20
20.048539
70
0
0
VERTEX
8
Layer 1
10
93.301226
20
21.593704
70
0
0
VERTEX
8
Layer 1
10
92.716961
20
21.686834
70
0
0
VERTEX
8
Layer 1
10
92.251361
20
21.966237
70
0
0
VERTEX
8
Layer 1
10
91.959195
20
22.381110
70
0
0
VERTEX
8
Layer 1
10
91.861895
20
22.880636
70
0
0
VERTEX
8
Layer 1
10
91.954995
20
23.392865
70
0
0
VERTEX
8
Layer 1
10
92.234428
20
23.811968
70
0
0
VERTEX
8
Layer 1
10
92.661894
20
24.104064
70
0
0
VERTEX
8
Layer 1
10
93.165760
20
24.201434
70
0
0
VERTEX
8
Layer 1
10
93.677959
20
24.104064
70
0
0
VERTEX
8
Layer 1
10
94.097092
20
23.811968
70
0
0
VERTEX
8
Layer 1
10
94.376425
20
23.367472
70
0
0
VERTEX
8
Layer 1
10
94.469625
20
22.812902
70
0
0
VERTEX
8
Layer 1
10
94.791358
20
22.812902
70
0
0
VERTEX
8
Layer 1
10
96.171290
20
22.999172
70
0
0
VERTEX
8
Layer 1
10
97.636154
20
23.557968
70
0
0
VERTEX
8
Layer 1
10
98.347353
20
23.811968
70
0
0
VERTEX
8
Layer 1
10
98.347353
20
23.811968
70
0
0
SEQEND
8
Layer 1
0
POLYLINE
8
Layer 1
62
7
70
1
10
0.000000
20
0.000000
66
1
0
VERTEX
8
Layer 1
10
86.228393
20
19.002907
70
0
0
VERTEX
8
Layer 1
10
87.202158
20
19.261137
70
0
0
VERTEX
8
Layer 1
10
87.921725
20
19.832640
70
0
0
VERTEX
8
Layer 1
10
88.378924
20
20.577705
70
0
0
VERTEX
8
Layer 1
10
88.531324
20
21.322771
70
0
0
VERTEX
8
Layer 1
10
88.446723
20
21.995870
70
0
0
VERTEX
8
Layer 1
10
88.192658
20
22.491169
70
0
0
VERTEX
8
Layer 1
10
87.782124
20
22.795969
70
0
0
VERTEX
8
Layer 1
10
87.193592
20
22.897569
70
0
0
VERTEX
8
Layer 1
10
86.545893
20
22.660499
70
0
0
VERTEX
8
Layer 1
10
85.923594
20
21.949304
70
0
0
VERTEX
8
Layer 1
10
85.466394
20
20.840178
70
0
0
VERTEX
8
Layer 1
10
85.313995
20
19.409307
70
0
0
VERTEX
8
Layer 1
10
85.457994
20
17.974205
70
0
0
VERTEX
8
Layer 1
10
85.889727
20
16.852377
70
0
0
VERTEX
8
Layer 1
10
86.588259
20
16.128478
70
0
0
VERTEX
8
Layer 1
10
87.532258
20
15.887178
70
0
0
VERTEX
8
Layer 1
10
88.314391
20
15.966553
70
0
0
VERTEX
8
Layer 1
10
89.035156
20
16.204677
70
0
0
VERTEX
8
Layer 1
10
89.694505
20
16.601552
70
0
0
VERTEX
8
Layer 1
10
90.292388
20
17.157176
70
0
0
VERTEX
8
Layer 1
10
90.766521
20
16.852377
70
0
0
VERTEX
8
Layer 1
10
90.097788
20
16.026878
70
0
0
VERTEX
8
Layer 1
10
89.242523
20
15.379178
70
0
0
VERTEX
8
Layer 1
10
88.235057
20
14.972782
70
0
0
VERTEX
8
Layer 1
10
87.108926
20
14.837312
70
0
0
VERTEX
8
Layer 1
10
86.152256
20
14.919862
70
0
0
VERTEX
8
Layer 1
10
85.297161
20
15.167512
70
0
0
VERTEX
8
Layer 1
10
84.543616
20
15.580262
70
0
0
VERTEX
8
Layer 1
10
83.891596
20
16.158111
70
0
0
VERTEX
8
Layer 1
10
83.365643
20
16.860847
70
0
0
VERTEX
8
Layer 1
10
82.989931
20
17.631312
70
0
0
VERTEX
8
Layer 1
10
82.764485
20
18.469509
70
0
0
VERTEX
8
Layer 1
10
82.689331
20
19.375440
70
0
0
VERTEX
8
Layer 1
10
82.768706
20
20.277139
70
0
0
VERTEX
8
Layer 1
10
83.006831
20
21.102638
70
0
0
VERTEX
8
Layer 1
10
83.403705
20
21.851937
70
0
0
VERTEX
8
Layer 1
10
83.959330
20
22.525036
70
0
0
VERTEX
8
Layer 1
10
84.664228
20
23.088072
70
0
0
VERTEX
8
Layer 1
10
85.491861
20
23.490238
70
0
0
VERTEX
8
Layer 1
10
86.442226
20
23.731536
70
0
0
VERTEX
8
Layer 1
10
87.515325
20
23.811968
70
0
0
VERTEX
8
Layer 1
10
88.844656
20
23.638398
70
0
0
VERTEX
8
Layer 1
10
89.852122
20
23.117702
70
0
0
VERTEX
8
Layer 1
10
90.487188
20
22.330306
70
0
0
VERTEX
8
Layer 1
10
90.698788
20
21.356638
70
0
0
VERTEX
8
Layer 1
10
90.461788
20
20.327939
70
0
0
VERTEX
8
Layer 1
10
89.750522
20
19.375440
70
0
0
VERTEX
8
Layer 1
10
88.666890
20
18.702344
70
0
0
VERTEX
8
Layer 1
10
87.278259
20
18.477975
70
0
0
VERTEX
8
Layer 1
10
86.262260
20
18.596508
70
0
0
VERTEX
8
Layer 1
10
86.228393
20
19.002907
70
0
0
VERTEX
8
Layer 1
10
86.228393
20
19.002907
70
0
0
SEQEND
8
Layer 1
0
POLYLINE
8
Layer 1
62
7
70
1
10
0.000000
20
0.000000
66
1
0
VERTEX
8
Layer 1
10
71.192406
20
22.694369
70
0
0
VERTEX
8
Layer 1
10
71.747071
20
23.151569
70
0
0
VERTEX
8
Layer 1
10
72.428538
20
23.507168
70
0
0
VERTEX
8
Layer 1
10
73.918669
20
23.811968
70
0
0
VERTEX
8
Layer 1
10
74.596134
20
23.735768
70
0
0
VERTEX
8
Layer 1
10
75.137868
20
23.507168
70
0
0
VERTEX
8
Layer 1
10
75.493500
20
23.181202
70
0
0
VERTEX
8
Layer 1
10
75.612001
20
22.779036
70
0
0
VERTEX
8
Layer 1
10
75.612001
20
17.648242
70
0
0
VERTEX
8
Layer 1
10
75.696700
20
17.169876
70
0
0
VERTEX
8
Layer 1
10
75.950667
20
16.818510
70
0
0
VERTEX
8
Layer 1
10
76.331732
20
16.615307
70
0
0
VERTEX
8
Layer 1
10
76.797332
20
16.547577
70
0
0
VERTEX
8
Layer 1
10
77.800664
20
16.780407
70
0
0
VERTEX
8
Layer 1
10
78.643063
20
17.478909
70
0
0
VERTEX
8
Layer 1
10
79.227296
20
18.541481
70
0
0
VERTEX
8
Layer 1
10
79.421996
20
19.866506
70
0
0
VERTEX
8
Layer 1
10
79.341596
20
20.700475
70
0
0
VERTEX
8
Layer 1
10
79.100263
20
21.576771
70
0
0
VERTEX
8
Layer 1
10
78.321330
20
21.373571
70
0
0
VERTEX
8
Layer 1
10
77.868497
20
21.466701
70
0
0
VERTEX
8
Layer 1
10
77.457732
20
21.746104
70
0
0
VERTEX
8
Layer 1
10
77.178398
20
22.173670
70
0
0
VERTEX
8
Layer 1
10
77.085199
20
22.677436
70
0
0
VERTEX
8
Layer 1
10
77.178398
20
23.176962
70
0
0
VERTEX
8
Layer 1
10
77.457732
20
23.591835
70
0
0
VERTEX
8
Layer 1
10
77.893897
20
23.883931
70
0
0
VERTEX
8
Layer 1
10
78.422930
20
23.981301
70
0
0
VERTEX
8
Layer 1
10
78.956363
20
23.871231
70
0
0
VERTEX
8
Layer 1
10
79.405062
20
23.541035
70
0
0
VERTEX
8
Layer 1
10
79.769195
20
23.045732
70
0
0
VERTEX
8
Layer 1
10
80.014662
20
22.406503
70
0
0
VERTEX
8
Layer 1
10
80.243261
20
21.102631
70
0
0
VERTEX
8
Layer 1
10
80.319461
20
19.663306
70
0
0
VERTEX
8
Layer 1
10
80.230561
20
18.168935
70
0
0
VERTEX
8
Layer 1
10
79.963862
20
16.666110
70
0
0
VERTEX
8
Layer 1
10
79.565995
20
15.264885
70
0
0
VERTEX
8
Layer 1
10
79.049463
20
14.075313
70
0
0
VERTEX
8
Layer 1
10
77.779465
20
12.195716
70
0
0
VERTEX
8
Layer 1
10
77.048219
20
11.499330
70
0
0
VERTEX
8
Layer 1
10
76.310599
20
11.001914
70
0
0
VERTEX
8
Layer 1
10
75.566579
20
10.703466
70
0
0
VERTEX
8
Layer 1
10
74.816135
20
10.603984
70
0
0
VERTEX
8
Layer 1
10
74.138802
20
10.790251
70
0
0
VERTEX
8
Layer 1
10
73.546137
20
11.433717
70
0
0
VERTEX
8
Layer 1
10
72.665604
20
12.652915
70
0
0
VERTEX
8
Layer 1
10
73.105870
20
13.110115
70
0
0
VERTEX
8
Layer 1
10
74.528269
20
12.974648
70
0
0
VERTEX
8
Layer 1
10
75.433192
20
13.049791
70
0
0
VERTEX
8
Layer 1
10
76.251299
20
13.275218
70
0
0
VERTEX
8
Layer 1
10
76.982590
20
13.650926
70
0
0
VERTEX
8
Layer 1
10
77.627065
20
14.176913
70
0
0
VERTEX
8
Layer 1
10
78.196534
20
14.872232
70
0
0
VERTEX
8
Layer 1
10
78.702429
20
15.755938
70
0
0
VERTEX
8
Layer 1
10
79.523596
20
18.088508
70
0
0
VERTEX
8
Layer 1
10
78.888646
20
16.814273
70
0
0
VERTEX
8
Layer 1
10
78.033530
20
15.904108
70
0
0
VERTEX
8
Layer 1
10
76.958248
20
15.358011
70
0
0
VERTEX
8
Layer 1
10
75.662801
20
15.175979
70
0
0
VERTEX
8
Layer 1
10
74.659568
20
15.358009
70
0
0
VERTEX
8
Layer 1
10
73.817070
20
15.904111
70
0
0
VERTEX
8
Layer 1
10
73.258303
20
16.801577
70
0
0
VERTEX
8
Layer 1
10
73.072004
20
18.003842
70
0
0
VERTEX
8
Layer 1
10
73.072004
20
22.999169
70
0
0
VERTEX
8
Layer 1
10
72.250870
20
22.673203
70
0
0
VERTEX
8
Layer 1
10
71.649606
20
22.169437
70
0
0
VERTEX
8
Layer 1
10
71.192406
20
22.694369
70
0
0
VERTEX
8
Layer 1
10
71.192406
20
22.694369
70
0
0
SEQEND
8
Layer 1
0
POLYLINE
8
Layer 1
62
7
70
1
10
0.000000
20
0.000000
66
1
0
VERTEX
8
Layer 1
10
69.059603
20
23.557968
70
0
0
VERTEX
8
Layer 1
10
69.059603
20
16.970910
70
0
0
VERTEX
8
Layer 1
10
69.279736
20
16.242777
70
0
0
VERTEX
8
Layer 1
10
69.559069
20
16.052278
70
0
0
VERTEX
8
Layer 1
10
69.957068
20
15.988778
70
0
0
VERTEX
8
Layer 1
10
70.448068
20
16.111548
70
0
0
VERTEX
8
Layer 1
10
71.006933
20
16.479844
70
0
0
VERTEX
8
Layer 1
10
71.311733
20
16.073444
70
0
0
VERTEX
8
Layer 1
10
69.956969
20
15.146342
70
0
0
VERTEX
8
Layer 1
10
69.279674
20
14.914569
70
0
0
VERTEX
8
Layer 1
10
68.602403
20
14.837312
70
0
0
VERTEX
8
Layer 1
10
67.875230
20
14.931505
70
0
0
VERTEX
8
Layer 1
10
67.302639
20
15.214082
70
0
0
VERTEX
8
Layer 1
10
66.884631
20
15.685040
70
0
0
VERTEX
8
Layer 1
10
66.621206
20
16.344377
70
0
0
VERTEX
8
Layer 1
10
66.129032
20
15.685040
70
0
0
VERTEX
8
Layer 1
10
65.533174
20
15.214082
70
0
0
VERTEX
8
Layer 1
10
64.833633
20
14.931505
70
0
0
VERTEX
8
Layer 1
10
64.030409
20
14.837312
70
0
0
VERTEX
8
Layer 1
10
63.114915
20
14.915630
70
0
0
VERTEX
8
Layer 1
10
62.315878
20
15.150582
70
0
0
VERTEX
8
Layer 1
10
61.633275
20
15.542165
70
0
0
VERTEX
8
Layer 1
10
61.067079
20
16.090378
70
0
0
VERTEX
8
Layer 1
10
60.622580
20
16.767709
70
0
0
VERTEX
8
Layer 1
10
60.305080
20
17.529706
70
0
0
VERTEX
8
Layer 1
10
60.051081
20
19.307707
70
0
0
VERTEX
8
Layer 1
10
60.321981
20
21.098401
70
0
0
VERTEX
8
Layer 1
10
60.660643
20
21.863577
70
0
0
VERTEX
8
Layer 1
10
61.134813
20
22.541969
70
0
0
VERTEX
8
Layer 1
10
61.739058
20
23.097594
70
0
0
VERTEX
8
Layer 1
10
62.451278
20
23.494468
70
0
0
VERTEX
8
Layer 1
10
63.271498
20
23.732593
70
0
0
VERTEX
8
Layer 1
10
64.199742
20
23.811968
70
0
0
VERTEX
8
Layer 1
10
64.909846
20
23.736825
70
0
0
VERTEX
8
Layer 1
10
65.533207
20
23.511398
70
0
0
VERTEX
8
Layer 1
10
66.069802
20
23.135690
70
0
0
VERTEX
8
Layer 1
10
66.519606
20
22.609703
70
0
0
VERTEX
8
Layer 1
10
66.519606
20
23.557968
70
0
0
VERTEX
8
Layer 1
10
69.059603
20
23.557968
70
0
0
VERTEX
8
Layer 1
10
69.059603
20
23.557968
70
0
0
SEQEND
8
Layer 1
0
POLYLINE
8
Layer 1
62
7
70
1
10
0.000000
20
0.000000
66
1
0
VERTEX
8
Layer 1
10
63.149877
20
21.898504
70
0
0
VERTEX
8
Layer 1
10
62.794244
20
20.780908
70
0
0
VERTEX
8
Layer 1
10
62.675744
20
19.324640
70
0
0
VERTEX
8
Layer 1
10
62.794244
20
17.868372
70
0
0
VERTEX
8
Layer 1
10
63.149877
20
16.750777
70
0
0
VERTEX
8
Layer 1
10
63.746710
20
16.039581
70
0
0
VERTEX
8
Layer 1
10
64.589208
20
15.802511
70
0
0
VERTEX
8
Layer 1
10
65.452741
20
16.039581
70
0
0
VERTEX
8
Layer 1
10
66.079340
20
16.750777
70
0
0
VERTEX
8
Layer 1
10
66.472973
20
17.876845
70
0
0
VERTEX
8
Layer 1
10
66.604272
20
19.324640
70
0
0
VERTEX
8
Layer 1
10
66.472973
20
20.768205
70
0
0
VERTEX
8
Layer 1
10
66.079340
20
21.881570
70
0
0
VERTEX
8
Layer 1
10
65.452741
20
22.605469
70
0
0
VERTEX
8
Layer 1
10
64.589208
20
22.846769
70
0
0
VERTEX
8
Layer 1
10
63.746710
20
22.609699
70
0
0
VERTEX
8
Layer 1
10
63.149877
20
21.898504
70
0
0
VERTEX
8
Layer 1
10
63.149877
20
21.898504
70
0
0
SEQEND
8
Layer 1
0
POLYLINE
8
Layer 1
62
7
70
1
10
0.000000
20
0.000000
66
1
0
VERTEX
8
Layer 1
10
52.616827
20
26.927697
70
0
0
VERTEX
8
Layer 1
10
53.171493
20
27.384897
70
0
0
VERTEX
8
Layer 1
10
53.852959
20
27.740496
70
0
0
VERTEX
8
Layer 1
10
55.343091
20
28.045296
70
0
0
VERTEX
8
Layer 1
10
56.020555
20
27.969096
70
0
0
VERTEX
8
Layer 1
10
56.562289
20
27.740496
70
0
0
VERTEX
8
Layer 1
10
56.917922
20
27.414530
70
0
0
VERTEX
8
Layer 1
10
57.036422
20
27.012364
70
0
0
VERTEX
8
Layer 1
10
57.036422
20
16.970910
70
0
0
VERTEX
8
Layer 1
10
57.256555
20
16.242777
70
0
0
VERTEX
8
Layer 1
10
57.535988
20
16.052278
70
0
0
VERTEX
8
Layer 1
10
57.933887
20
15.988778
70
0
0
VERTEX
8
Layer 1
10
58.424987
20
16.111548
70
0
0
VERTEX
8
Layer 1
10
58.983753
20
16.479844
70
0
0
VERTEX
8
Layer 1
10
59.288552
20
16.073444
70
0
0
VERTEX
8
Layer 1
10
57.933987
20
15.146342
70
0
0
VERTEX
8
Layer 1
10
57.256642
20
14.914569
70
0
0
VERTEX
8
Layer 1
10
56.579222
20
14.837312
70
0
0
VERTEX
8
Layer 1
10
55.667999
20
14.992887
70
0
0
VERTEX
8
Layer 1
10
55.017124
20
15.459612
70
0
0
VERTEX
8
Layer 1
10
54.626600
20
16.237486
70
0
0
VERTEX
8
Layer 1
10
54.496425
20
17.326509
70
0
0
VERTEX
8
Layer 1
10
54.496425
20
27.232497
70
0
0
VERTEX
8
Layer 1
10
53.675292
20
26.906531
70
0
0
VERTEX
8
Layer 1
10
53.074027
20
26.402765
70
0
0
VERTEX
8
Layer 1
10
52.616827
20
26.927697
70
0
0
VERTEX
8
Layer 1
10
52.616827
20
26.927697
70
0
0
SEQEND
8
Layer 1
0
POLYLINE
8
Layer 1
62
7
70
1
10
0.000000
20
0.000000
66
1
0
VERTEX
8
Layer 1
10
42.656600
20
26.267298
70
0
0
VERTEX
8
Layer 1
10
42.656600
20
26.944631
70
0
0
VERTEX
8
Layer 1
10
46.381929
20
26.944631
70
0
0
VERTEX
8
Layer 1
10
48.270006
20
26.819749
70
0
0
VERTEX
8
Layer 1
10
49.768625
20
26.445101
70
0
0
VERTEX
8
Layer 1
10
50.877761
20
25.820686
70
0
0
VERTEX
8
Layer 1
10
51.597389
20
24.946500
70
0
0
VERTEX
8
Layer 1
10
51.914922
20
24.082898
70
0
0
VERTEX
8
Layer 1
10
52.020722
20
23.049969
70
0
0
VERTEX
8
Layer 1
10
51.914922
20
22.017040
70
0
0
VERTEX
8
Layer 1
10
51.597389
20
21.153438
70
0
0
VERTEX
8
Layer 1
10
51.093689
20
20.463405
70
0
0
VERTEX
8
Layer 1
10
50.395124
20
19.951173
70
0
0
VERTEX
8
Layer 1
10
48.646892
20
19.354277
70
0
0
VERTEX
8
Layer 1
10
46.381929
20
19.155307
70
0
0
VERTEX
8
Layer 1
10
46.212596
20
19.155307
70
0
0
VERTEX
8
Layer 1
10
46.212596
20
15.768645
70
0
0
VERTEX
8
Layer 1
10
47.567261
20
15.768645
70
0
0
VERTEX
8
Layer 1
10
47.567261
20
15.091312
70
0
0
VERTEX
8
Layer 1
10
42.656600
20
15.091312
70
0
0
VERTEX
8
Layer 1
10
42.656600
20
15.768645
70
0
0
VERTEX
8
Layer 1
10
43.672599
20
15.768645
70
0
0
VERTEX
8
Layer 1
10
43.672599
20
26.267298
70
0
0
VERTEX
8
Layer 1
10
42.656600
20
26.267298
70
0
0
VERTEX
8
Layer 1
10
42.656600
20
26.267298
70
0
0
SEQEND
8
Layer 1
0
POLYLINE
8
Layer 1
62
7
70
1
10
0.000000
20
0.000000
66
1
0
VERTEX
8
Layer 1
10
46.381929
20
26.267298
70
0
0
VERTEX
8
Layer 1
10
46.212596
20
26.267298
70
0
0
VERTEX
8
Layer 1
10
46.212596
20
19.832640
70
0
0
VERTEX
8
Layer 1
10
46.381929
20
19.832640
70
0
0
VERTEX
8
Layer 1
10
47.605460
20
20.044309
70
0
0
VERTEX
8
Layer 1
10
48.600193
20
20.679305
70
0
0
VERTEX
8
Layer 1
10
49.260625
20
21.695301
70
0
0
VERTEX
8
Layer 1
10
49.480725
20
23.049969
70
0
0
VERTEX
8
Layer 1
10
49.260625
20
24.404637
70
0
0
VERTEX
8
Layer 1
10
48.600193
20
25.420632
70
0
0
VERTEX
8
Layer 1
10
47.605460
20
26.055628
70
0
0
VERTEX
8
Layer 1
10
46.381929
20
26.267298
70
0
0
VERTEX
8
Layer 1
10
46.381929
20
26.267298
70
0
0
SEQEND
8
Layer 1
0
POLYLINE
8
Layer 1
62
7
70
1
10
0.000000
20
0.000000
66
1
0
VERTEX
8
Layer 1
10
39.339788
20
10.646318
70
0
0
VERTEX
8
Layer 1
10
32.160064
20
10.646318
70
0
0
VERTEX
8
Layer 1
10
32.160064
20
11.323650
70
0
0
VERTEX
8
Layer 1
10
36.139392
20
15.353778
70
0
0
VERTEX
8
Layer 1
10
36.902375
20
16.247008
70
0
0
VERTEX
8
Layer 1
10
37.447424
20
17.165643
70
0
0
VERTEX
8
Layer 1
10
37.774490
20
18.109677
70
0
0
VERTEX
8
Layer 1
10
37.883523
20
19.079107
70
0
0
VERTEX
8
Layer 1
10
37.709924
20
20.179772
70
0
0
VERTEX
8
Layer 1
10
37.189257
20
21.077238
70
0
0
VERTEX
8
Layer 1
10
36.418725
20
21.674134
70
0
0
VERTEX
8
Layer 1
10
35.462059
20
21.873104
70
0
0
VERTEX
8
Layer 1
10
34.124328
20
21.636037
70
0
0
VERTEX
8
Layer 1
10
34.767794
20
21.144971
70
0
0
VERTEX
8
Layer 1
10
35.021793
20
20.315239
70
0
0
VERTEX
8
Layer 1
10
34.920194
20
19.845343
70
0
0
VERTEX
8
Layer 1
10
34.615394
20
19.417773
70
0
0
VERTEX
8
Layer 1
10
34.170894
20
19.112974
70
0
0
VERTEX
8
Layer 1
10
33.650195
20
19.011374
70
0
0
VERTEX
8
Layer 1
10
33.133696
20
19.108744
70
0
0
VERTEX
8
Layer 1
10
32.701930
20
19.400840
70
0
0
VERTEX
8
Layer 1
10
32.409764
20
19.845339
70
0
0
VERTEX
8
Layer 1
10
32.312463
20
20.366039
70
0
0
VERTEX
8
Layer 1
10
32.383359
20
20.880393
70
0
0
VERTEX
8
Layer 1
10
32.596063
20
21.339711
70
0
0
VERTEX
8
Layer 1
10
33.446995
20
22.093237
70
0
0
VERTEX
8
Layer 1
10
34.738061
20
22.588536
70
0
0
VERTEX
8
Layer 1
10
36.308725
20
22.753636
70
0
0
VERTEX
8
Layer 1
10
37.866491
20
22.525036
70
0
0
VERTEX
8
Layer 1
10
39.119655
20
21.839237
70
0
0
VERTEX
8
Layer 1
10
39.945121
20
20.835942
70
0
0
VERTEX
8
Layer 1
10
40.220320
20
19.620973
70
0
0
VERTEX
8
Layer 1
10
40.059421
20
18.638844
70
0
0
VERTEX
8
Layer 1
10
39.576854
20
17.724442
70
0
0
VERTEX
8
Layer 1
10
37.189257
20
15.184445
70
0
0
VERTEX
8
Layer 1
10
34.090461
20
12.204182
70
0
0
VERTEX
8
Layer 1
10
36.901391
20
12.204182
70
0
0
VERTEX
8
Layer 1
10
37.836824
20
12.280382
70
0
0
VERTEX
8
Layer 1
10
38.476189
20
12.508982
70
0
0
VERTEX
8
Layer 1
10
38.886756
20
12.932312
70
0
0
VERTEX
8
Layer 1
10
39.136588
20
13.592714
70
0
0
VERTEX
8
Layer 1
10
39.255121
20
14.202313
70
0
0
VERTEX
8
Layer 1
10
39.915521
20
14.202313
70
0
0
VERTEX
8
Layer 1
10
40.372720
20
11.357517
70
0
0
VERTEX
8
Layer 1
10
40.220320
20
10.849517
70
0
0
VERTEX
8
Layer 1
10
39.881654
20
10.663251
70
0
0
VERTEX
8
Layer 1
10
39.339788
20
10.646318
70
0
0
VERTEX
8
Layer 1
10
39.339788
20
10.646318
70
0
0
SEQEND
8
Layer 1
0
POLYLINE
8
Layer 1
62
7
70
1
10
0.000000
20
0.000000
66
1
0
VERTEX
8
Layer 1
10
27.587276
20
26.267298
70
0
0
VERTEX
8
Layer 1
10
26.401997
20
26.267298
70
0
0
VERTEX
8
Layer 1
10
26.401997
20
20.476105
70
0
0
VERTEX
8
Layer 1
10
29.957939
20
20.476105
70
0
0
VERTEX
8
Layer 1
10
29.957939
20
19.714106
70
0
0
VERTEX
8
Layer 1
10
26.401997
20
19.714106
70
0
0
VERTEX
8
Layer 1
10
26.401997
20
15.768645
70
0
0
VERTEX
8
Layer 1
10
28.264608
20
15.768645
70
0
0
VERTEX
8
Layer 1
10
28.264608
20
15.091312
70
0
0
VERTEX
8
Layer 1
10
22.846001
20
15.091312
70
0
0
VERTEX
8
Layer 1
10
22.846001
20
15.768645
70
0
0
VERTEX
8
Layer 1
10
23.862000
20
15.768645
70
0
0
VERTEX
8
Layer 1
10
23.862000
20
26.267298
70
0
0
VERTEX
8
Layer 1
10
22.846001
20
26.267298
70
0
0
VERTEX
8
Layer 1
10
22.846001
20
26.944631
70
0
0
VERTEX
8
Layer 1
10
30.110339
20
26.944631
70
0
0
VERTEX
8
Layer 1
10
30.652205
20
26.910764
70
0
0
VERTEX
8
Layer 1
10
30.990871
20
26.724497
70
0
0
VERTEX
8
Layer 1
10
31.143271
20
26.233431
70
0
0
VERTEX
8
Layer 1
10
30.686072
20
23.388635
70
0
0
VERTEX
8
Layer 1
10
30.025673
20
23.388635
70
0
0
VERTEX
8
Layer 1
10
29.687006
20
25.065033
70
0
0
VERTEX
8
Layer 1
10
29.466906
20
25.691562
70
0
0
VERTEX
8
Layer 1
10
29.111274
20
26.047165
70
0
0
VERTEX
8
Layer 1
10
28.527074
20
26.212268
70
0
0
VERTEX
8
Layer 1
10
27.587276
20
26.267298
70
0
0
VERTEX
8
Layer 1
10
27.587276
20
26.267298
70
0
0
SEQEND
8
Layer 1
0
POLYLINE
8
Layer 1
62
7
70
1
10
0.000000
20
0.000000
66
1
0
VERTEX
8
Layer 1
10
13.006292
20
17.140243
70
0
0
VERTEX
8
Layer 1
10
11.511934
20
17.292643
70
0
0
VERTEX
8
Layer 1
10
10.076829
20
17.749842
70
0
0
VERTEX
8
Layer 1
10
8.768734
20
18.448338
70
0
0
VERTEX
8
Layer 1
10
7.655365
20
19.358507
70
0
0
VERTEX
8
Layer 1
10
6.740966
20
20.471875
70
0
0
VERTEX
8
Layer 1
10
6.029767
20
21.779970
70
0
0
VERTEX
8
Layer 1
10
5.585271
20
23.215065
70
0
0
VERTEX
8
Layer 1
10
5.437101
20
24.709433
70
0
0
VERTEX
8
Layer 1
10
5.585271
20
26.203801
70
0
0
VERTEX
8
Layer 1
10
6.029767
20
27.638896
70
0
0
VERTEX
8
Layer 1
10
6.740966
20
28.946991
70
0
0
VERTEX
8
Layer 1
10
7.655365
20
30.060360
70
0
0
VERTEX
8
Layer 1
10
8.768734
20
30.970529
70
0
0
VERTEX
8
Layer 1
10
10.076829
20
31.669025
70
0
0
VERTEX
8
Layer 1
10
11.511934
20
32.126224
70
0
0
VERTEX
8
Layer 1
10
13.006292
20
32.278624
70
0
0
VERTEX
8
Layer 1
10
14.500660
20
32.126224
70
0
0
VERTEX
8
Layer 1
10
15.935755
20
31.669025
70
0
0
VERTEX
8
Layer 1
10
17.243860
20
30.970529
70
0
0
VERTEX
8
Layer 1
10
18.357218
20
30.060360
70
0
0
VERTEX
8
Layer 1
10
19.267387
20
28.946991
70
0
0
VERTEX
8
Layer 1
10
19.965883
20
27.638896
70
0
0
VERTEX
8
Layer 1
10
20.423082
20
26.258831
70
0
0
VERTEX
8
Layer 1
10
20.575482
20
24.929566
70
0
0
VERTEX
8
Layer 1
10
20.490822
20
23.752695
70
0
0
VERTEX
8
Layer 1
10
20.236816
20
22.795969
70
0
0
VERTEX
8
Layer 1
10
19.860063
20
22.033973
70
0
0
VERTEX
8
Layer 1
10
19.373217
20
21.441304
70
0
0
VERTEX
8
Layer 1
10
18.209062
20
20.692008
70
0
0
VERTEX
8
Layer 1
10
16.917887
20
20.442239
70
0
0
VERTEX
8
Layer 1
10
16.100858
20
20.548069
70
0
0
VERTEX
8
Layer 1
10
15.376955
20
20.865572
70
0
0
VERTEX
8
Layer 1
10
14.818163
20
21.386268
70
0
0
VERTEX
8
Layer 1
10
14.496423
20
22.067837
70
0
0
VERTEX
8
Layer 1
10
14.327090
20
22.067837
70
0
0
VERTEX
8
Layer 1
10
13.851908
20
21.541849
70
0
0
VERTEX
8
Layer 1
10
13.306868
20
21.166141
70
0
0
VERTEX
8
Layer 1
10
12.691973
20
20.940714
70
0
0
VERTEX
8
Layer 1
10
12.007226
20
20.865572
70
0
0
VERTEX
8
Layer 1
10
11.325669
20
20.934364
70
0
0
VERTEX
8
Layer 1
10
10.720305
20
21.140741
70
0
0
VERTEX
8
Layer 1
10
10.191135
20
21.484699
70
0
0
VERTEX
8
Layer 1
10
9.738163
20
21.966237
70
0
0
VERTEX
8
Layer 1
10
9.128563
20
23.215065
70
0
0
VERTEX
8
Layer 1
10
8.925364
20
24.726367
70
0
0
VERTEX
8
Layer 1
10
9.158203
20
26.229198
70
0
0
VERTEX
8
Layer 1
10
9.856696
20
27.452630
70
0
0
VERTEX
8
Layer 1
10
10.376344
20
27.934167
70
0
0
VERTEX
8
Layer 1
10
10.987001
20
28.278126
70
0
0
VERTEX
8
Layer 1
10
11.688671
20
28.484502
70
0
0
VERTEX
8
Layer 1
10
12.481359
20
28.553295
70
0
0
VERTEX
8
Layer 1
10
13.556634
20
28.358565
70
0
0
VERTEX
8
Layer 1
10
14.377890
20
27.774363
70
0
0
VERTEX
8
Layer 1
10
14.784289
20
28.367029
70
0
0
VERTEX
8
Layer 1
10
16.613087
20
28.367029
70
0
0
VERTEX
8
Layer 1
10
16.613087
20
22.914502
70
0
0
VERTEX
8
Layer 1
10
16.680827
20
22.300676
70
0
0
VERTEX
8
Layer 1
10
16.884020
20
21.847704
70
0
0
VERTEX
8
Layer 1
10
17.226926
20
21.568301
70
0
0
VERTEX
8
Layer 1
10
17.679886
20
21.475171
70
0
0
VERTEX
8
Layer 1
10
18.399562
20
21.686840
70
0
0
VERTEX
8
Layer 1
10
19.068417
20
22.321836
70
0
0
VERTEX
8
Layer 1
10
19.551023
20
23.350535
70
0
0
VERTEX
8
Layer 1
10
19.711883
20
24.709433
70
0
0
VERTEX
8
Layer 1
10
19.588058
20
26.039762
70
0
0
VERTEX
8
Layer 1
10
19.216584
20
27.270603
70
0
0
VERTEX
8
Layer 1
10
18.597460
20
28.401959
70
0
0
VERTEX
8
Layer 1
10
17.730686
20
29.433827
70
0
0
VERTEX
8
Layer 1
10
16.698817
20
30.300601
70
0
0
VERTEX
8
Layer 1
10
15.567462
20
30.919726
70
0
0
VERTEX
8
Layer 1
10
14.336620
20
31.291200
70
0
0
VERTEX
8
Layer 1
10
13.006292
20
31.415025
70
0
0
VERTEX
8
Layer 1
10
11.674918
20
31.291200
70
0
0
VERTEX
8
Layer 1
10
10.440902
20
30.919726
70
0
0
VERTEX
8
Layer 1
10
9.304249
20
30.300601
70
0
0
VERTEX
8
Layer 1
10
8.264964
20
29.433827
70
0
0
VERTEX
8
Layer 1
10
7.405603
20
28.401959
70
0
0
VERTEX
8
Layer 1
10
6.791770
20
27.270603
70
0
0
VERTEX
8
Layer 1
10
6.423468
20
26.039762
70
0
0
VERTEX
8
Layer 1
10
6.300700
20
24.709433
70
0
0
VERTEX
8
Layer 1
10
6.423468
20
23.379105
70
0
0
VERTEX
8
Layer 1
10
6.791770
20
22.148263
70
0
0
VERTEX
8
Layer 1
10
7.405603
20
21.016908
70
0
0
VERTEX
8
Layer 1
10
8.264964
20
19.985039
70
0
0
VERTEX
8
Layer 1
10
9.304249
20
19.118265
70
0
0
VERTEX
8
Layer 1
10
10.440902
20
18.499141
70
0
0
VERTEX
8
Layer 1
10
11.674918
20
18.127667
70
0
0
VERTEX
8
Layer 1
10
13.006292
20
18.003842
70
0
0
VERTEX
8
Layer 1
10
14.771590
20
18.236672
70
0
0
VERTEX
8
Layer 1
10
16.409887
20
18.935174
70
0
0
VERTEX
8
Layer 1
10
16.799354
20
18.190108
70
0
0
VERTEX
8
Layer 1
10
14.962096
20
17.402713
70
0
0
VERTEX
8
Layer 1
10
13.006292
20
17.140243
70
0
0
VERTEX
8
Layer 1
10
13.006292
20
17.140243
70
0
0
SEQEND
8
Layer 1
0
POLYLINE
8
Layer 1
62
7
70
1
10
0.000000
20
0.000000
66
1
0
VERTEX
8
Layer 1
10
11.702427
20
26.758364
70
0
0
VERTEX
8
Layer 1
10
11.435727
20
25.877839
70
0
0
VERTEX
8
Layer 1
10
11.346827
20
24.726367
70
0
0
VERTEX
8
Layer 1
10
11.435727
20
23.570665
70
0
0
VERTEX
8
Layer 1
10
11.702427
20
22.677436
70
0
0
VERTEX
8
Layer 1
10
12.168099
20
22.105937
70
0
0
VERTEX
8
Layer 1
10
12.820025
20
21.915437
70
0
0
VERTEX
8
Layer 1
10
13.615891
20
22.169437
70
0
0
VERTEX
8
Layer 1
10
14.191624
20
22.846769
70
0
0
VERTEX
8
Layer 1
10
14.191624
20
26.724497
70
0
0
VERTEX
8
Layer 1
10
13.615891
20
27.300230
70
0
0
VERTEX
8
Layer 1
10
12.820025
20
27.520363
70
0
0
VERTEX
8
Layer 1
10
12.168099
20
27.329863
70
0
0
VERTEX
8
Layer 1
10
11.702427
20
26.758364
70
0
0
VERTEX
8
Layer 1
10
11.702427
20
26.758364
70
0
0
SEQEND
8
Layer 1
0
POLYLINE
8
Layer 1
62
7
70
1
10
0.000000
20
0.000000
66
1
0
VERTEX
8
Layer 1
10
21.576664
20
10.682036
70
0
0
VERTEX
8
Layer 1
10
21.503413
20
12.222154
70
0
0
VERTEX
8
Layer 1
10
21.251103
20
13.453182
70
0
0
VERTEX
8
Layer 1
10
20.770901
20
14.407095
70
0
0
VERTEX
8
Layer 1
10
20.013971
20
15.115869
70
0
0
VERTEX
8
Layer 1
10
18.931480
20
15.611477
70
0
0
VERTEX
8
Layer 1
10
17.474594
20
15.925896
70
0
0
VERTEX
8
Layer 1
10
15.594479
20
16.091099
70
0
0
VERTEX
8
Layer 1
10
13.242300
20
16.139061
70
0
0
VERTEX
8
Layer 1
10
10.890121
20
16.091099
70
0
0
VERTEX
8
Layer 1
10
9.010005
20
15.925896
70
0
0
VERTEX
8
Layer 1
10
7.553119
20
15.611477
70
0
0
VERTEX
8
Layer 1
10
6.470629
20
15.115869
70
0
0
VERTEX
8
Layer 1
10
5.713699
20
14.407095
70
0
0
VERTEX
8
Layer 1
10
5.233496
20
13.453182
70
0
0
VERTEX
8
Layer 1
10
4.981187
20
12.222154
70
0
0
VERTEX
8
Layer 1
10
4.907935
20
10.682036
70
0
0
VERTEX
8
Layer 1
10
4.981187
20
9.141881
70
0
0
VERTEX
8
Layer 1
10
5.233496
20
7.910835
70
0
0
VERTEX
8
Layer 1
10
5.713699
20
6.956920
70
0
0
VERTEX
8
Layer 1
10
6.470629
20
6.248155
70
0
0
VERTEX
8
Layer 1
10
7.553119
20
5.752561
70
0
0
VERTEX
8
Layer 1
10
9.010005
20
5.438158
70
0
0
VERTEX
8
Layer 1
10
10.890121
20
5.272969
70
0
0
VERTEX
8
Layer 1
10
13.242300
20
5.225012
70
0
0
VERTEX
8
Layer 1
10
15.594479
20
5.272969
70
0
0
VERTEX
8
Layer 1
10
17.474594
20
5.438158
70
0
0
VERTEX
8
Layer 1
10
18.931480
20
5.752561
70
0
0
VERTEX
8
Layer 1
10
20.013971
20
6.248155
70
0
0
VERTEX
8
Layer 1
10
20.770901
20
6.956920
70
0
0
VERTEX
8
Layer 1
10
21.251103
20
7.910835
70
0
0
VERTEX
8
Layer 1
10
21.503413
20
9.141881
70
0
0
VERTEX
8
Layer 1
10
21.576664
20
10.682036
70
0
0
VERTEX
8
Layer 1
10
21.576664
20
10.682036
70
0
0
SEQEND
8
Layer 1
0
POLYLINE
8
Layer 1
62
7
70
1
10
0.000000
20
0.000000
66
1
0
VERTEX
8
Layer 1
10
11.524733
20
9.260035
70
0
0
VERTEX
8
Layer 1
10
16.025290
20
10.788002
70
0
0
VERTEX
8
Layer 1
10
11.521267
20
12.326420
70
0
0
VERTEX
8
Layer 1
10
11.524733
20
9.260485
70
0
0
VERTEX
8
Layer 1
10
11.524733
20
9.260035
70
0
0
VERTEX
8
Layer 1
10
11.524733
20
9.260035
70
0
0
SEQEND
8
Layer 1
0
POLYLINE
8
Layer 1
62
7
70
1
10
0.000000
20
0.000000
66
1
0
VERTEX
8
Layer 1
10
124.102656
20
31.749458
70
0
0
VERTEX
8
Layer 1
10
122.875962
20
32.066699
70
0
0
VERTEX
8
Layer 1
10
118.818436
20
32.440267
70
0
0
VERTEX
8
Layer 1
10
111.363911
20
32.846288
70
0
0
VERTEX
8
Layer 1
10
99.946218
20
33.260888
70
0
0
VERTEX
8
Layer 1
10
83.999192
20
33.660191
70
0
0
VERTEX
8
Layer 1
10
62.956665
20
34.020324
70
0
0
VERTEX
8
Layer 1
10
3.320437
20
34.527579
70
0
0
VERTEX
8
Layer 1
10
0.145451
20
0.264081
70
0
0
VERTEX
8
Layer 1
10
124.102656
20
3.306785
70
0
0
VERTEX
8
Layer 1
10
124.102656
20
31.749458
70
0
0
VERTEX
8
Layer 1
10
124.102656
20
31.749458
70
0
0
SEQEND
8
Layer 1
 0 
ENDSEC
 0 
EOF